<?xml version="1.0" encoding="utf-8"?>
<!-- Generator: Adobe Illustrator 23.0.1, SVG Export Plug-In . SVG Version: 6.00 Build 0)  -->
<svg version="1.1" id="Слой_1" xmlns="http://www.w3.org/2000/svg" xmlns:xlink="http://www.w3.org/1999/xlink" x="0px" y="0px"
	 viewBox="0 0 88 25" width="88" height="25" style="enable-background:new 0 0 88 25;" xml:space="preserve">
<style type="text/css">
	.st0{fill:#383838;}
	.st1{fill:#FFFFFF;}
</style>
<g>
	<path class="st0" d="M88,22.5c0,1.4-1.1,2.5-2.5,2.5H2.5C1.1,25,0,23.9,0,22.5v-20C0,1.1,1.1,0,2.5,0h82.9C86.9,0,88,1.1,88,2.5
		L88,22.5z"/>
	<path class="st1" d="M18.6,12.2c0-2.1,1.7-3.1,1.8-3.2c-1-1.4-2.5-1.6-3-1.7c-1.3-0.1-2.5,0.8-3.1,0.8c-0.7,0-1.6-0.8-2.7-0.7
		c-1.4,0-2.7,0.8-3.4,2.1c-1.5,2.6-0.4,6.3,1,8.4c0.7,1,1.5,2.1,2.6,2.1c1,0,1.4-0.7,2.7-0.7c1.2,0,1.6,0.7,2.7,0.7
		c1.1,0,1.8-1,2.5-2c0.8-1.2,1.1-2.3,1.1-2.4C20.7,15.6,18.6,14.7,18.6,12.2z"/>
	<path class="st1" d="M16.5,6c0.6-0.7,0.9-1.7,0.8-2.7c-0.8,0-1.8,0.6-2.4,1.3c-0.5,0.6-1,1.6-0.9,2.6C15,7.2,15.9,6.7,16.5,6z"/>
	<path class="st1" d="M34.9,19.2h-1.5l-0.8-2.4h-2.9l-0.8,2.4h-1.5l2.8-8.3H32L34.9,19.2z M32.3,15.7l-0.7-2.2
		c-0.1-0.2-0.2-0.7-0.4-1.6h0c-0.1,0.4-0.2,0.9-0.4,1.6l-0.7,2.2H32.3z"/>
	<path class="st1" d="M41.5,16.3c0,1-0.3,1.8-0.8,2.4c-0.5,0.5-1.1,0.8-1.9,0.8c-0.8,0-1.4-0.3-1.7-0.8h0v3.1h-1.3v-6.3
		c0-0.6,0-1.3,0-1.9h1.2l0.1,0.9h0c0.4-0.7,1.1-1,2-1c0.7,0,1.3,0.3,1.8,0.8C41.3,14.7,41.5,15.4,41.5,16.3z M40.1,16.3
		c0-0.6-0.1-1-0.4-1.4c-0.3-0.4-0.7-0.6-1.2-0.6c-0.3,0-0.6,0.1-0.9,0.3c-0.3,0.2-0.4,0.5-0.5,0.8c0,0.2-0.1,0.3-0.1,0.4v1
		c0,0.4,0.1,0.8,0.4,1.1c0.3,0.3,0.6,0.4,1,0.4c0.5,0,0.9-0.2,1.2-0.6C40,17.5,40.1,17,40.1,16.3z"/>
	<path class="st1" d="M49,16.3c0,1-0.3,1.8-0.8,2.4c-0.5,0.5-1.1,0.8-1.8,0.8c-0.8,0-1.4-0.3-1.7-0.8h0v3.1h-1.3v-6.3
		c0-0.6,0-1.3,0-1.9h1.2l0.1,0.9h0c0.4-0.7,1.1-1,2-1c0.7,0,1.3,0.3,1.8,0.8C48.7,14.7,49,15.4,49,16.3z M47.6,16.3
		c0-0.6-0.1-1-0.4-1.4c-0.3-0.4-0.7-0.6-1.2-0.6c-0.3,0-0.6,0.1-0.9,0.3c-0.3,0.2-0.4,0.5-0.5,0.8c0,0.2-0.1,0.3-0.1,0.4v1
		c0,0.4,0.1,0.8,0.4,1.1c0.3,0.3,0.6,0.4,1.1,0.4c0.5,0,0.9-0.2,1.2-0.6C47.5,17.5,47.6,17,47.6,16.3z"/>
	<path class="st1" d="M58.1,16.8c0,0.7-0.3,1.2-0.8,1.7c-0.6,0.5-1.5,0.7-2.6,0.7c-1,0-1.8-0.2-2.4-0.5l0.3-1.1
		c0.7,0.3,1.4,0.5,2.2,0.5c0.6,0,1-0.1,1.3-0.3c0.3-0.2,0.5-0.5,0.5-0.9c0-0.3-0.1-0.6-0.4-0.8c-0.3-0.2-0.7-0.4-1.3-0.6
		c-1.6-0.5-2.5-1.3-2.5-2.3c0-0.7,0.3-1.2,0.9-1.6c0.6-0.4,1.3-0.6,2.3-0.6c0.9,0,1.6,0.1,2.1,0.4l-0.4,1.1
		c-0.5-0.2-1.1-0.4-1.8-0.4c-0.5,0-0.9,0.1-1.2,0.3C54.1,12.4,54,12.7,54,13c0,0.3,0.1,0.6,0.4,0.8c0.2,0.2,0.7,0.4,1.4,0.6
		c0.8,0.3,1.4,0.6,1.8,1C57.9,15.7,58.1,16.2,58.1,16.8z"/>
	<path class="st1" d="M62.3,14.1h-1.7V17c0,0.7,0.3,1.1,0.9,1.1c0.3,0,0.5,0,0.7-0.1l0,1c-0.3,0.1-0.7,0.1-1.2,0.1
		c-0.6,0-1.1-0.2-1.4-0.5c-0.3-0.3-0.5-0.8-0.5-1.6v-3h-1v-1h1v-1.1l1.5-0.4v1.5h1.7V14.1z"/>
	<path class="st1" d="M68.9,16.2c0,0.9-0.3,1.6-0.8,2.1c-0.5,0.6-1.3,0.9-2.2,0.9c-0.9,0-1.6-0.3-2.1-0.8c-0.5-0.5-0.8-1.2-0.8-2.1
		c0-0.9,0.3-1.6,0.8-2.1c0.5-0.6,1.3-0.8,2.2-0.8c0.9,0,1.6,0.3,2.1,0.8C68.7,14.7,68.9,15.4,68.9,16.2z M67.5,16.2
		c0-0.5-0.1-1-0.4-1.3c-0.3-0.4-0.7-0.7-1.2-0.7c-0.5,0-0.9,0.2-1.2,0.7c-0.2,0.4-0.4,0.8-0.4,1.4c0,0.5,0.1,1,0.4,1.3
		c0.3,0.4,0.7,0.7,1.2,0.7c0.5,0,0.9-0.2,1.2-0.7C67.4,17.2,67.5,16.8,67.5,16.2z"/>
	<path class="st1" d="M73.1,14.6c-0.1,0-0.3,0-0.4,0c-0.5,0-0.9,0.2-1.1,0.5c-0.2,0.3-0.3,0.7-0.3,1.1v3h-1.4l0-3.9
		c0-0.7,0-1.3-0.1-1.8h1.2l0.1,1.1h0c0.1-0.4,0.4-0.7,0.7-0.9c0.3-0.2,0.6-0.3,1-0.3c0.1,0,0.2,0,0.3,0V14.6z"/>
	<path class="st1" d="M79.7,16c0,0.2,0,0.4-0.1,0.6h-4.4c0,0.6,0.2,1,0.6,1.3c0.4,0.3,0.8,0.4,1.4,0.4c0.6,0,1.2-0.1,1.8-0.3
		l0.2,0.9c-0.6,0.2-1.3,0.3-2.2,0.3c-1,0-1.8-0.3-2.4-0.8c-0.6-0.5-0.9-1.2-0.9-2.1c0-0.8,0.3-1.5,0.8-2.1c0.6-0.6,1.3-0.9,2.3-0.9
		c0.9,0,1.7,0.3,2.1,0.9C79.5,14.7,79.7,15.3,79.7,16z M78.3,15.7c0-0.4-0.1-0.7-0.3-1c-0.3-0.3-0.6-0.5-1.2-0.5
		c-0.5,0-0.9,0.2-1.2,0.5c-0.2,0.3-0.4,0.6-0.4,1L78.3,15.7L78.3,15.7z"/>
	<path class="st1" d="M31.5,5.3c0,0.7-0.2,1.3-0.7,1.7c-0.4,0.3-1,0.5-1.7,0.5c-0.4,0-0.7,0-0.9,0v-4c0.3-0.1,0.7-0.1,1.1-0.1
		c0.7,0,1.2,0.2,1.6,0.5C31.3,4.2,31.5,4.7,31.5,5.3z M30.9,5.3c0-0.5-0.1-0.8-0.4-1.1c-0.2-0.3-0.6-0.4-1.1-0.4c-0.2,0-0.4,0-0.5,0
		V7c0.1,0,0.2,0,0.4,0c0.5,0,0.9-0.1,1.1-0.4C30.7,6.3,30.9,5.9,30.9,5.3z"/>
	<path class="st1" d="M35.7,5.8c0,0.5-0.1,0.9-0.4,1.2c-0.3,0.3-0.7,0.5-1.2,0.5c-0.5,0-0.9-0.2-1.2-0.5c-0.3-0.3-0.4-0.7-0.4-1.2
		c0-0.5,0.2-0.9,0.5-1.2c0.3-0.3,0.7-0.5,1.2-0.5c0.5,0,0.9,0.2,1.2,0.5C35.6,4.9,35.7,5.3,35.7,5.8z M34.9,5.8
		c0-0.3-0.1-0.5-0.2-0.8c-0.2-0.3-0.4-0.4-0.7-0.4c-0.3,0-0.5,0.1-0.7,0.4c-0.1,0.2-0.2,0.5-0.2,0.8c0,0.3,0.1,0.5,0.2,0.8
		C33.5,6.9,33.7,7,34,7c0.3,0,0.5-0.1,0.7-0.4C34.8,6.4,34.9,6.1,34.9,5.8z"/>
	<path class="st1" d="M40.7,5l-0.9,2.5h-0.6l-0.4-1.1c-0.1-0.3-0.2-0.5-0.2-0.8h0c-0.1,0.3-0.1,0.5-0.2,0.8L38,7.5h-0.6L36.5,5h0.7
		l0.3,1.2c0.1,0.3,0.1,0.5,0.2,0.8h0c0-0.2,0.1-0.5,0.2-0.8L38.4,5h0.5l0.4,1.2c0.1,0.3,0.2,0.6,0.2,0.8h0c0-0.3,0.1-0.5,0.2-0.8
		L40.1,5L40.7,5L40.7,5z"/>
	<path class="st1" d="M44,6.7h-0.6V5.3c0-0.4-0.2-0.6-0.6-0.6c-0.2,0-0.3,0.1-0.5,0.2c-0.1,0.1-0.2,0.3-0.2,0.4v1.5h-0.6V4.9
		c0-0.2,0-0.4,0-0.7h0.6l0,0.4h0c0.1-0.1,0.2-0.2,0.3-0.3c0.2-0.1,0.4-0.1,0.6-0.1c0.3,0,0.5,0.1,0.7,0.2C43.9,4.6,44,4.8,44,5.2
		V6.7z"/>
	<path class="st1" d="M46.5,7.5h-0.8V3.3h0.8V7.5z"/>
	<path class="st1" d="M50.6,5.8c0,0.5-0.1,0.9-0.4,1.2c-0.3,0.3-0.7,0.5-1.2,0.5c-0.5,0-0.9-0.2-1.2-0.5c-0.3-0.3-0.4-0.7-0.4-1.2
		c0-0.5,0.2-0.9,0.5-1.2c0.3-0.3,0.7-0.5,1.2-0.5c0.5,0,0.9,0.2,1.2,0.5C50.5,4.9,50.6,5.3,50.6,5.8z M49.9,5.8
		c0-0.3-0.1-0.5-0.2-0.8c-0.2-0.3-0.4-0.4-0.7-0.4c-0.3,0-0.5,0.1-0.7,0.4c-0.1,0.2-0.2,0.5-0.2,0.8c0,0.3,0.1,0.5,0.2,0.8
		C48.5,6.9,48.7,7,49,7c0.3,0,0.5-0.1,0.7-0.4C49.8,6.4,49.9,6.1,49.9,5.8z"/>
	<path class="st1" d="M53.1,7.4h-0.6l-0.1-0.4h0c-0.2,0.3-0.5,0.4-0.9,0.4c-0.3,0-0.5-0.1-0.7-0.3c-0.2-0.2-0.2-0.4-0.2-0.7
		c0-0.4,0.2-0.7,0.5-0.9c0.3-0.2,0.7-0.3,1.3-0.3V5.3c0-0.4-0.2-0.6-0.6-0.6c-0.3,0-0.6,0.1-0.8,0.2l-0.1-0.5c0.3-0.2,0.6-0.3,1-0.3
		c0.8,0,1.2,0.4,1.2,1.3v1.2C53.1,7,53.1,7.2,53.1,7.4z M52.4,6.3V5.8c-0.7,0-1.1,0.2-1.1,0.6c0,0.2,0,0.3,0.1,0.4
		C51.5,6.9,51.6,7,51.8,7c0.1,0,0.3,0,0.4-0.1c0.1-0.1,0.2-0.2,0.2-0.4C52.4,6.4,52.4,6.4,52.4,6.3z"/>
	<path class="st1" d="M58.1,7.4h-0.7l0-0.5h0c-0.2,0.3-0.6,0.5-1.1,0.5c-0.4,0-0.8-0.1-1-0.4c-0.3-0.3-0.4-0.6-0.4-1
		c0-0.5,0.1-0.8,0.5-1.1c0.3-0.3,0.6-0.4,1.1-0.4c0.5,0,0.8,0.1,1,0.4h0V3.3h0.8v3.3C58.1,7,58.1,7.2,58.1,7.4z M57.3,6.3V5.8
		c0-0.1,0-0.1,0-0.2c0-0.2-0.1-0.3-0.3-0.4c-0.1-0.1-0.3-0.2-0.5-0.2c-0.3,0-0.5,0.1-0.7,0.3c-0.2,0.2-0.2,0.4-0.2,0.7
		c0,0.3,0.1,0.5,0.2,0.7C56,6.9,56.2,7,56.5,7c0.3,0,0.5-0.1,0.6-0.2C57.2,6.6,57.3,6.5,57.3,6.3z"/>
	<path class="st1" d="M63.9,5.8c0,0.5-0.1,0.9-0.4,1.2c-0.3,0.3-0.7,0.5-1.2,0.5c-0.5,0-0.9-0.2-1.2-0.5c-0.3-0.3-0.4-0.7-0.4-1.2
		c0-0.5,0.2-0.9,0.5-1.2c0.3-0.3,0.7-0.5,1.2-0.5c0.5,0,0.9,0.2,1.2,0.5C63.8,4.9,63.9,5.3,63.9,5.8z M63.1,5.8
		c0-0.3-0.1-0.5-0.2-0.8c-0.2-0.3-0.4-0.4-0.7-0.4c-0.3,0-0.5,0.1-0.7,0.4c-0.1,0.2-0.2,0.5-0.2,0.8c0,0.3,0.1,0.5,0.2,0.8
		C61.7,6.9,62,7,62.3,7c0.3,0,0.5-0.1,0.7-0.4C63.1,6.4,63.1,6.1,63.1,5.8z"/>
	<path class="st1" d="M66.4,6.7h-0.6V5.3c0-0.4-0.2-0.6-0.6-0.6c-0.2,0-0.3,0.1-0.5,0.2c-0.1,0.1-0.2,0.3-0.2,0.4v1.5h-0.6V4.9
		c0-0.2,0-0.4,0-0.7h0.6l0,0.4h0c0.1-0.1,0.2-0.2,0.3-0.3c0.2-0.1,0.4-0.1,0.6-0.1c0.3,0,0.5,0.1,0.7,0.2c0.2,0.2,0.3,0.5,0.3,0.8
		V6.7z"/>
	<path class="st1" d="M71.4,5.3h-0.7v1.3c0,0.3,0.1,0.5,0.4,0.5c0.1,0,0.2,0,0.3,0l0,0.4c-0.1,0-0.3,0.1-0.5,0.1
		c-0.2,0-0.4-0.1-0.6-0.2c-0.1-0.1-0.2-0.4-0.2-0.7V5.3h-0.4V4.8h0.4V4.3l0.6-0.2v0.7h0.7L71.4,5.3L71.4,5.3z"/>
	<path class="st1" d="M74.7,7.5h-0.6V5.9c0-0.5-0.2-0.8-0.6-0.8c-0.3,0-0.5,0.1-0.6,0.4c0,0.1,0,0.1,0,0.2v1.7h-0.6V3.3h0.6v1.7h0
		c0.2-0.3,0.5-0.5,0.9-0.5c0.3,0,0.5,0.1,0.7,0.3c0.2,0.2,0.3,0.5,0.3,1V7.5z"/>
</g>
</svg>
