<svg width="69" height="82" viewBox="0 0 69 82" fill="none" xmlns="http://www.w3.org/2000/svg">
<g clip-path="url(#clip0_283_437)">
<path fill-rule="evenodd" clip-rule="evenodd" d="M31.0089 0.264118C9.56881 2.55641 -4.54823 23.3805 1.34559 44.0207C3.40511 51.2332 8.32769 58.1962 14.4139 62.5063C18.2663 65.2343 23.2232 67.3615 27.9519 68.3161C30.7033 68.8713 37.5998 68.8684 40.3981 68.311C52.0073 65.9975 61.5389 58.0796 65.9082 47.1197C67.6487 42.7536 68.3492 38.4691 68.1715 33.2774C67.9396 26.5045 66.1661 20.9739 62.4039 15.2915C60.386 12.2439 56.018 7.8862 53.0142 5.92365C47.3673 2.23474 41.5248 0.3869 35.0484 0.241656C33.307 0.202836 31.4892 0.212868 31.0089 0.264118ZM37.6226 1.23525C47.4913 2.32677 56.2747 7.67836 61.9008 16.0281C63.2742 18.0668 65.2662 22.3655 66.0312 24.9415C67.0895 28.5068 67.4391 31.4728 67.2967 35.6763C67.0669 42.4553 65.4016 47.6199 61.6003 53.3412C59.7696 56.0967 55.8943 60.0665 53.1986 61.9477C49.5122 64.5202 44.7898 66.5135 40.1797 67.4433C37.4411 67.9955 30.6861 68.0009 28.1206 67.453C20.9263 65.9165 15.7779 63.157 10.7919 58.1651C7.65014 55.0196 5.86051 52.5204 4.14053 48.8766C2.82713 46.0945 2.25176 44.4261 1.6443 41.6403C-0.354298 32.4761 1.62421 22.8245 7.09094 15.0673C8.87663 12.5338 12.786 8.6713 15.2873 6.9698C22.0351 2.37911 29.8417 0.374906 37.6226 1.23525ZM42.5774 13.9537C41.6678 14.3496 40.571 15.6565 40.2977 16.6704C39.8917 18.1763 40.4955 19.8453 42.3262 22.2776C43.3909 23.6924 46.9046 27.171 47.2688 27.171C47.5772 27.171 49.6683 25.2505 51.2106 23.5506C53.5218 21.0034 54.6472 18.7047 54.3876 17.0621C53.9195 14.1033 50.6771 12.7166 48.1431 14.3915C47.3402 14.9223 47.1956 14.9543 46.8745 14.6734C45.7379 13.6798 43.9103 13.3736 42.5774 13.9537ZM45.5209 14.8448C45.8646 15.0223 46.3406 15.4149 46.5788 15.7172C47.1275 16.4142 47.4287 16.4094 47.9912 15.6952C49.2124 14.1446 51.6898 14.1668 52.9283 15.7392C54.2946 17.4739 53.381 19.9374 50.0057 23.6206C49.2122 24.4866 48.2643 25.4075 47.8994 25.6671L47.2361 26.1388L45.5997 24.5287C41.6848 20.676 40.424 18.1069 41.4634 16.0995C42.177 14.7214 44.119 14.1208 45.5209 14.8448ZM32.4113 21.2659C32.0602 21.6166 31.7631 22.1317 31.751 22.4109C31.7082 23.3927 31.8152 24.4183 32.0155 24.9446C32.1908 25.4049 32.1663 25.4545 31.8318 25.3149C28.8626 24.0757 27.2278 23.8452 26.3249 24.5383C25.5454 25.1367 25.657 26.136 26.7348 28.205C28.231 31.0771 30.6464 33.682 33.1234 35.094C33.9767 35.5806 34.0868 35.788 33.7627 36.2985C33.5186 36.6832 33.147 36.4893 30.463 34.5792C28.1647 32.9435 26.2624 31.919 24.8102 31.5349C23.0018 31.0568 20.0904 31.2931 19.2042 31.9901C19.0629 32.101 18.6937 31.8773 18.2584 31.4162C17.6488 30.7707 17.4007 30.6603 16.5588 30.6603C15.3079 30.6603 14.4709 31.2365 13.9947 32.4251C13.5861 33.4451 13.6912 34.0174 14.4331 34.8103L14.9491 35.3621L14.4198 36.4064C13.6599 37.9054 13.5209 39.1781 13.9486 40.7148C14.1445 41.4185 14.3047 42.059 14.3047 42.1382C14.3047 42.2171 13.6647 42.2223 12.8826 42.1493C11.206 41.9929 10.8469 42.0961 10.5741 42.8127C10.1496 43.9278 11.4203 45.7233 13.0793 46.3533L13.658 46.573L12.9987 47.4819C12.1624 48.6347 12.1441 49.4473 12.94 50.078C14.0833 50.984 16.9071 50.3665 20.1922 48.4919L21.822 47.5619L22.8747 48.5911C23.4957 49.198 24.7015 50.003 25.8146 50.5539L27.7021 51.4875L30.5564 51.4729C33.7258 51.4568 35.0593 51.1198 36.8657 49.8784C37.8086 49.2306 37.8259 49.2278 38.7801 49.5599C40.1693 50.0436 42.5554 49.8608 43.8036 49.1753C44.5867 48.7451 44.7776 48.5183 44.8326 47.9536C44.8783 47.4859 44.7591 47.1197 44.466 46.827C44.0361 46.3976 44.0359 46.3863 44.4531 45.5686C45.0049 44.4878 44.9951 43.4862 44.4278 42.9734C44.0382 42.6213 43.8643 42.6012 43.0631 42.8158C42.5581 42.951 41.9717 43.1283 41.7604 43.2098C41.4711 43.3211 41.4082 43.2733 41.5066 43.017C41.5787 42.8295 41.9975 42.5615 42.4371 42.4215C46.5995 41.096 48.5874 38.4438 47.2952 35.9402C46.3037 34.0191 43.7306 31.77 41.8087 31.1443C40.6627 30.7714 40.6549 30.7627 40.2981 29.4609C39.143 25.2479 35.5246 20.6284 33.3797 20.6284C33.1981 20.6284 32.7624 20.9153 32.4113 21.2659ZM35.7026 23.1916C37.5477 25.0955 38.7143 27.0955 39.3807 29.4973L39.8125 31.0533L39.2941 31.1522C38.8838 31.2307 38.6526 31.0737 38.1849 30.3995C37.497 29.4081 35.3502 27.3767 34.1568 26.5878C32.4103 25.4335 32.0701 21.5008 33.7166 21.5008C33.9077 21.5008 34.8014 22.2617 35.7026 23.1916ZM17.0068 23.3466C16.8398 23.7819 17.04 25.4104 17.2916 25.6617C17.3923 25.7622 17.5981 25.7678 17.7495 25.6745C17.9508 25.5504 17.9794 25.1923 17.8565 24.3388C17.6884 23.1722 17.2643 22.6769 17.0068 23.3466ZM12.6418 24.6504C12.4969 25.0268 13.1035 26.3656 13.6117 26.7913C14.1467 27.2395 14.3095 26.5089 13.8676 25.6435C13.313 24.5579 12.8282 24.1652 12.6418 24.6504ZM30.6149 25.7731C31.432 26.0967 32.7393 26.7745 33.5199 27.2794C35.0171 28.2479 37.3031 30.501 38.0055 31.7006C38.2907 32.1876 38.5283 32.3691 38.7554 32.2729C39.4956 31.9597 40.7981 31.8131 41.4783 31.9662C42.8897 32.2842 45.6482 34.662 46.4886 36.2855C47.5232 38.2836 46.0689 40.1383 42.4393 41.451C41.6835 41.7245 40.996 42.0826 40.9112 42.247C40.5205 43.0053 39.4155 45.5563 39.4155 45.6995C39.4155 45.9423 40.9686 46.5917 42.5128 46.9949C44.3049 47.4629 44.4494 47.9336 42.998 48.5747C41.7602 49.1217 39.5382 49.0615 38.3527 48.4494C37.6322 48.0771 37.6119 48.0797 37.0443 48.6109C35.5071 50.0499 32.7113 50.8396 29.7107 50.6823C28.0785 50.5966 27.6383 50.4763 26.009 49.6698C24.6453 48.995 23.8824 48.4439 23.1044 47.5722L22.0493 46.3899L20.1968 47.4697C18.0855 48.7002 16.5885 49.3086 15.1364 49.526C13.0075 49.8449 12.6601 49.1252 14.158 47.4981C15.5778 45.9558 15.8332 45.4882 15.8332 44.4315C15.8332 43.9027 15.5293 42.5861 15.1578 41.5057C14.6102 39.9126 14.511 39.3517 14.6332 38.5384C14.8144 37.3318 15.1648 36.6171 15.9216 35.911C16.2333 35.62 16.4883 35.3193 16.4883 35.2426C16.4883 35.1658 16.1422 34.9379 15.719 34.7366C14.4438 34.1292 14.3096 33.1046 15.3491 31.9143C15.9079 31.2745 17.1601 31.4169 17.9753 32.2129C18.3585 32.5869 18.6718 32.9749 18.6718 33.0752C18.6718 33.1753 19.1876 33.0174 19.8182 32.7243C21.3324 32.0201 23.57 31.9889 25.3779 32.6467C26.0732 32.8996 28.0174 34.0245 29.6987 35.1466C31.3801 36.2684 33.1221 37.3379 33.5702 37.5229L34.3844 37.8593L34.5132 37.2586C34.6215 36.753 34.8687 36.1079 35.217 35.4229C35.2573 35.3433 34.6708 34.9536 33.9138 34.5567C33.0151 34.0854 31.8543 33.1516 30.5695 31.8659C28.9393 30.2349 28.4179 29.5342 27.5306 27.7825C26.5948 25.9347 26.4977 25.622 26.7619 25.3042C27.1686 24.8146 28.6491 24.9948 30.6149 25.7731ZM8.95524 27.6067C8.80396 27.8512 10.3399 29.3492 10.7436 29.3508C11.3784 29.3534 11.2515 28.8088 10.4597 28.1317C9.57475 27.3751 9.1832 27.2386 8.95524 27.6067ZM14.6869 43.2105C15.0009 43.3084 15.0572 44.9988 14.762 45.4644C14.2215 46.3167 11.4661 44.6512 11.4661 43.4722C11.4661 42.9301 11.484 42.9246 12.94 43.0245C13.7507 43.0799 14.5368 43.1636 14.6869 43.2105ZM43.895 43.7507C44.1005 44.0829 43.8225 45.0893 43.3568 45.6995L42.9472 46.236L41.7272 45.852C41.0562 45.6406 40.5073 45.3936 40.5073 45.3026C40.5073 44.862 41.1877 44.3127 42.1604 43.9675C43.4871 43.4968 43.7199 43.4679 43.895 43.7507ZM5.20916 75.6686C4.67615 76.1266 4.59493 76.3699 4.51741 77.7391C4.34556 80.7779 4.83795 81.6923 6.64637 81.6923C7.54882 81.6923 7.79535 81.5996 8.17485 81.1177C8.42923 80.7949 8.62749 80.2213 8.62749 79.8091C8.62749 79.1392 8.5705 79.0752 7.97243 79.0752C7.43965 79.0752 7.31671 79.1668 7.31409 79.5659C7.30929 80.2667 7.00228 80.6571 6.52693 80.5672C5.60918 80.3933 5.58822 76.4524 6.504 76.2794C6.77257 76.2286 6.96342 76.412 7.12587 76.8774C7.31497 77.4191 7.48244 77.5486 7.99383 77.5486C8.55435 77.5486 8.62749 77.4721 8.62749 76.8846C8.62749 75.3128 6.50291 74.5572 5.20916 75.6686ZM10.3016 75.2952C10.2215 75.375 10.156 76.8471 10.156 78.5665V81.6923H10.8111H11.4661V80.3694C11.4661 79.0547 11.4698 79.0467 12.0666 79.1154C12.6247 79.1795 12.6747 79.2689 12.7763 80.3838C12.885 81.5796 12.8878 81.5835 13.6695 81.6489L14.4538 81.7145L14.2704 80.3404C14.1695 79.5845 13.9497 78.875 13.7817 78.7634C13.5276 78.5947 13.5505 78.4605 13.9183 77.9637C14.591 77.055 14.3069 75.8737 13.3162 75.4603C12.5549 75.1426 10.5635 75.0335 10.3016 75.2952ZM16.0516 77.9704C16.0516 80.5293 16.0961 80.8644 16.4883 81.2561C17.1247 81.8919 18.9279 81.8677 19.5367 81.2149C19.937 80.7859 19.982 80.4542 19.982 77.9292V75.1207L19.3815 75.1898L18.781 75.2588L18.6718 77.8758L18.5627 80.4928H18.0168H17.4709L17.3617 77.8758L17.2525 75.2588L16.6521 75.1898L16.0516 75.1207V77.9704ZM21.6643 75.2867C21.5796 75.3713 21.5104 76.8471 21.5104 78.5665V81.6923H23.3665H25.2225V81.038C25.2225 80.3984 25.1982 80.3838 24.1307 80.3838H23.0389V79.6205C23.0389 78.8613 23.0442 78.8572 24.0215 78.8572C24.9239 78.8572 25.0041 78.8127 25.0041 78.3119C25.0041 77.8112 24.9239 77.7667 24.0215 77.7667C23.0753 77.7667 23.0389 77.7426 23.0389 77.1125C23.0389 76.4716 23.0616 76.4582 24.1451 76.4582C25.2231 76.4582 25.2497 76.443 25.1823 75.8585C25.1146 75.2699 25.0829 75.2577 23.4658 75.1959C22.5596 75.1613 21.7491 75.2023 21.6643 75.2867ZM26.7509 78.4066V81.6923H28.4978H30.2446V81.038C30.2446 80.3988 30.2195 80.3838 29.1598 80.3838H28.0748L28.0135 77.8213L27.9519 75.2588L27.3514 75.1898L26.7509 75.1207V78.4066ZM30.463 75.7957C30.463 76.3865 30.5339 76.4582 31.118 76.4582H31.7731V79.089V81.72L32.4827 81.6515L33.1924 81.5832L33.254 79.0207L33.3153 76.4582H33.978C34.5721 76.4582 34.6335 76.3961 34.5715 75.8585L34.5025 75.2588L32.4827 75.1959L30.463 75.1334V75.7957ZM35.4851 75.3484C35.4851 75.4579 35.829 76.3499 36.2494 77.3306C36.8382 78.7048 37.0136 79.4128 37.0136 80.4169V81.72L37.7233 81.6515L38.4329 81.5832L38.5495 80.0566C38.629 79.0159 38.8877 78.0239 39.3624 76.9398C40.0824 75.2958 40.0326 74.9966 39.0696 75.1857C38.6652 75.2653 38.4907 75.5146 38.0263 76.6763C37.7553 77.3539 37.7023 77.3906 37.5536 77.0034C36.8498 75.1728 36.8324 75.1497 36.1513 75.1497C35.7849 75.1497 35.4851 75.2391 35.4851 75.3484ZM44.2193 78.4123V81.6923H44.8744H45.5294V80.2747V78.8572H46.6212C47.6402 78.8572 47.713 78.8208 47.713 78.3119C47.713 77.8032 47.6402 77.7667 46.6212 77.7667C45.558 77.7667 45.5294 77.75 45.5294 77.1238C45.5294 76.5021 45.567 76.479 46.6758 76.415C47.7354 76.3542 47.8221 76.308 47.8221 75.804C47.8221 75.2717 47.7798 75.2573 46.0207 75.1955L44.2193 75.1321V78.4123ZM49.1869 75.2721C49.0966 75.3647 49.0231 76.8471 49.0231 78.5665V81.6923H49.7873H50.5516V80.3838C50.5516 79.1489 50.581 79.0752 51.0741 79.0752C51.6929 79.0752 51.8617 79.4294 51.8617 80.7288C51.8617 81.6899 51.8636 81.6923 52.6493 81.6923C53.2777 81.6923 53.41 81.6225 53.3043 81.3473C53.2314 81.1575 53.1718 80.5757 53.1718 80.0544C53.1718 79.533 53.0365 78.9713 52.8709 78.8059C52.6152 78.5506 52.6152 78.4435 52.8709 78.0944C53.3229 77.4769 53.2515 76.1617 52.7408 75.7C52.2837 75.2869 49.4987 74.9515 49.1869 75.2721ZM54.9187 78.421V81.6923H56.7891H58.6597L58.5905 81.0925C58.5261 80.5332 58.4444 80.4884 57.3752 80.4269L56.2288 80.3609V79.6091V78.8572H57.3206C58.3396 78.8572 58.4123 78.8208 58.4123 78.3119C58.4123 77.8032 58.3396 77.7667 57.3206 77.7667C56.253 77.7667 56.2288 77.7522 56.2288 77.1125C56.2288 76.4729 56.253 76.4582 57.3206 76.4582C58.3881 76.4582 58.4123 76.4436 58.4123 75.804V75.1497H56.6655H54.9187V78.421ZM59.9408 78.421V81.6923H61.8112H63.6818L63.6127 81.0925C63.5482 80.5332 63.4665 80.4884 62.3973 80.4269L61.2509 80.3609V79.6091V78.8572H62.3427C63.3617 78.8572 63.4345 78.8208 63.4345 78.3119C63.4345 77.8032 63.3617 77.7667 62.3427 77.7667C61.2751 77.7667 61.2509 77.7522 61.2509 77.1125C61.2509 76.4729 61.2751 76.4582 62.3427 76.4582C63.4102 76.4582 63.4345 76.4436 63.4345 75.804V75.1497H61.6877H59.9408V78.421ZM12.2968 76.3806C12.7064 76.4903 12.7874 76.6412 12.7335 77.1956C12.6789 77.7556 12.561 77.888 12.0666 77.9447C11.4986 78.0101 11.4661 77.9659 11.4661 77.1269C11.4661 76.1935 11.496 76.1665 12.2968 76.3806ZM51.4394 76.4659C52.1936 76.8691 51.8303 77.9848 50.9446 77.9848C50.6317 77.9848 50.5516 77.8071 50.5516 77.1125C50.5516 76.2077 50.7228 76.0829 51.4394 76.4659Z" fill="#2F2F2F"/>
</g>
<defs>
<clipPath id="clip0_283_437">
<rect width="69" height="82" fill="white"/>
</clipPath>
</defs>
</svg>
