<svg width="42" height="42" viewBox="0 0 42 42" fill="none" xmlns="http://www.w3.org/2000/svg">
<path d="M42.0001 19.6163C42.0001 19.7817 42.0001 20.5805 42.0001 20.5805C42 25.6409 40.1355 30.5239 36.7627 34.2966C33.39 38.0692 28.7455 40.4669 23.7167 41.0317C18.6879 41.5964 13.6273 40.2885 9.50179 37.358C5.37629 34.4274 2.47512 30.0796 1.3526 25.1453C0.230078 20.2109 0.964895 15.0359 3.41666 10.6091C5.86842 6.18228 9.86524 2.81395 14.6435 1.14767C19.4217 -0.518601 24.6463 -0.365998 29.3192 1.57633C33.992 3.51865 37.7854 7.11453 39.9746 11.6769L38.2373 12.5099C36.2791 8.39189 32.8845 5.13074 28.6912 3.33937C24.498 1.54799 19.7948 1.34971 15.4657 2.7818C11.1365 4.2139 7.47941 7.17775 5.18165 11.1164C2.88389 15.055 2.10366 19.6972 2.98761 24.1706C3.87155 28.6439 6.3588 32.6405 9.98193 35.4091C13.6051 38.1778 18.1146 39.5279 22.6631 39.2058C27.2116 38.8836 31.4858 36.9114 34.6826 33.6598C37.8793 30.4081 39.7785 26.1009 40.0231 21.5476H29.8329V19.6163H42.0001Z" fill="url(#paint0_linear_87_817)"/>
<path d="M20.447 4.04578V37.1155H22.3698V23.2965L31.7641 32.6908L33.1277 31.33L22.3784 20.5806L33.5642 9.39478L32.2006 8.03114L22.3698 17.8619V4.04578H20.447Z" fill="black"/>
<defs>
<linearGradient id="paint0_linear_87_817" x1="3.05651" y1="11.2404" x2="39.7464" y2="29.9348" gradientUnits="userSpaceOnUse">
<stop stop-color="#DCC161"/>
<stop offset="0.7" stop-color="#C59E47"/>
<stop offset="1" stop-color="#B28231"/>
</linearGradient>
</defs>
</svg>
