<?xml version="1.0" encoding="utf-8"?>
<!-- Generator: Adobe Illustrator 23.0.1, SVG Export Plug-In . SVG Version: 6.00 Build 0)  -->
<svg version="1.1" id="Слой_1" xmlns="http://www.w3.org/2000/svg" xmlns:xlink="http://www.w3.org/1999/xlink" x="0px" y="0px"
	 viewBox="0 0 85 25" width="85" height="25" style="enable-background:new 0 0 85 25;" xml:space="preserve">
<style type="text/css">
	.st0{fill:#383838;}
	.st1{fill:#FFFFFF;stroke:#FFFFFF;stroke-width:0.16;stroke-miterlimit:10;}
	.st2{fill:#FFFFFF;}
	.st3{fill:url(#SVGID_1_);}
	.st4{fill:url(#SVGID_2_);}
	.st5{fill:url(#SVGID_3_);}
	.st6{fill:url(#SVGID_4_);}
</style>
<path class="st0" d="M81.9,25H3.1C1.4,25,0,23.6,0,21.9V3.1C0,1.4,1.4,0,3.1,0h78.7C83.6,0,85,1.4,85,3.1v18.8
	C85,23.6,83.6,25,81.9,25z"/>
<path class="st0" d="M81.9,25H3.1C1.4,25,0,23.6,0,21.9V3.1C0,1.4,1.4,0,3.1,0h78.7C83.6,0,85,1.4,85,3.1v18.8
	C85,23.6,83.6,25,81.9,25z"/>
<path class="st0" d="M81.9,0.5c1.5,0,2.6,1.2,2.6,2.6v18.8c0,1.4-1.2,2.6-2.6,2.6H3.1c-1.5,0-2.6-1.2-2.6-2.6V3.1
	c0-1.4,1.2-2.6,2.6-2.6H81.9z M81.9,0H3.1C1.4,0,0,1.4,0,3.1v18.8C0,23.6,1.4,25,3.1,25h78.7c1.7,0,3.1-1.4,3.1-3.1V3.1
	C85,1.4,83.6,0,81.9,0z"/>
<path class="st1" d="M30,6.2c0,0.5-0.2,1-0.5,1.3C29.1,7.8,28.6,8,28.1,8c-0.6,0-1.1-0.2-1.5-0.6C26.2,7,26,6.6,26,6s0.2-1,0.6-1.4
	C27,4.2,27.5,4,28.1,4c0.3,0,0.6,0.1,0.8,0.2c0.3,0.1,0.5,0.2,0.6,0.4l-0.3,0.3c-0.3-0.3-0.6-0.5-1.1-0.5c-0.4,0-0.8,0.1-1.1,0.4
	c-0.3,0.3-0.5,0.7-0.5,1.1s0.2,0.8,0.5,1.1c0.3,0.3,0.7,0.4,1.1,0.4c0.4,0,0.8-0.1,1.1-0.4c0.2-0.2,0.3-0.4,0.3-0.8h-1.4V5.9H30
	C30,6,30,6.1,30,6.2z"/>
<path class="st1" d="M33,4.5h-1.6v1.3h1.4v0.5h-1.4v1.3H33V8h-2V4h2V4.5z"/>
<path class="st1" d="M34.8,8h-0.6V4.5H33V4h3v0.5h-1.2V8z"/>
<path class="st1" d="M38,7.8V4h0.5v3.8H38z"/>
<path class="st1" d="M40.4,8.1h-0.5V4.8h-1.1V4.4h2.6v0.5h-1.1V8.1z"/>
<path class="st1" d="M46.4,7.6C46,8,45.5,8.2,45,8.2c-0.6,0-1-0.2-1.4-0.6C43.2,7.3,43,6.8,43,6.3c0-0.5,0.2-1,0.6-1.4
	C44,4.5,44.4,4.3,45,4.3c0.5,0,1,0.2,1.4,0.6c0.4,0.4,0.6,0.8,0.6,1.4C46.9,6.8,46.7,7.3,46.4,7.6z M43.9,7.3c0.3,0.3,0.6,0.4,1,0.4
	c0.4,0,0.7-0.1,1-0.4c0.3-0.3,0.4-0.6,0.4-1.1c0-0.4-0.1-0.8-0.4-1.1c-0.3-0.3-0.6-0.4-1-0.4c-0.4,0-0.7,0.1-1,0.4
	c-0.3,0.3-0.4,0.6-0.4,1.1C43.5,6.7,43.7,7,43.9,7.3z"/>
<path class="st1" d="M47.6,8.1V4.4h0.6L50,7.3h0l0-0.7V4.4h0.5v3.7H50l-1.9-3.1h0l0,0.7v2.3H47.6z"/>
<path class="st2" d="M42.9,13.6c-1.5,0-2.7,1.1-2.7,2.7c0,1.5,1.2,2.7,2.7,2.7c1.5,0,2.7-1.1,2.7-2.7C45.6,14.7,44.4,13.6,42.9,13.6
	z M42.9,17.9c-0.8,0-1.5-0.7-1.5-1.6c0-1,0.7-1.6,1.5-1.6c0.8,0,1.5,0.7,1.5,1.6C44.4,17.2,43.7,17.9,42.9,17.9z M37,13.6
	c-1.5,0-2.7,1.1-2.7,2.7c0,1.5,1.2,2.7,2.7,2.7c1.5,0,2.7-1.1,2.7-2.7C39.7,14.7,38.5,13.6,37,13.6z M37,17.9
	c-0.8,0-1.5-0.7-1.5-1.6c0-1,0.7-1.6,1.5-1.6c0.8,0,1.5,0.7,1.5,1.6C38.5,17.2,37.8,17.9,37,17.9z M30.1,14.4v1.1h2.7
	c-0.1,0.6-0.3,1.1-0.6,1.4c-0.4,0.4-1,0.8-2.1,0.8c-1.7,0-3-1.3-3-3c0-1.7,1.3-3,3-3c0.9,0,1.6,0.4,2,0.8l0.8-0.8
	c-0.7-0.6-1.6-1.1-2.9-1.1c-2.3,0-4.2,1.9-4.2,4.1c0,2.3,1.9,4.1,4.2,4.1c1.2,0,2.2-0.4,2.9-1.2c0.8-0.7,1-1.8,1-2.6
	c0-0.3,0-0.5-0.1-0.7H30.1z M58.6,15.3c-0.2-0.6-0.9-1.7-2.3-1.7c-1.4,0-2.5,1.1-2.5,2.7c0,1.5,1.1,2.7,2.7,2.7
	c1.2,0,1.9-0.7,2.2-1.2l-0.9-0.6c-0.3,0.4-0.7,0.7-1.3,0.7c-0.6,0-1-0.3-1.3-0.8l3.6-1.5L58.6,15.3z M54.9,16.2c0-1,0.8-1.5,1.4-1.5
	c0.5,0,0.9,0.2,1,0.6L54.9,16.2z M52,18.7h1.2v-7.8H52V18.7z M50.1,14.2L50.1,14.2c-0.3-0.3-0.8-0.6-1.4-0.6c-1.3,0-2.6,1.2-2.6,2.7
	c0,1.5,1.2,2.6,2.6,2.6c0.6,0,1.1-0.3,1.4-0.6h0v0.4c0,1-0.5,1.6-1.4,1.6c-0.7,0-1.2-0.5-1.4-0.9l-1,0.4c0.3,0.7,1.1,1.6,2.4,1.6
	c1.4,0,2.5-0.8,2.5-2.8v-4.8h-1.1V14.2z M48.7,17.9c-0.8,0-1.5-0.7-1.5-1.6c0-0.9,0.7-1.6,1.5-1.6c0.8,0,1.4,0.7,1.4,1.6
	C50.2,17.2,49.5,17.9,48.7,17.9z M64.1,10.9h-2.8v7.8h1.2v-3h1.6c1.3,0,2.6-0.9,2.6-2.4C66.7,11.9,65.4,10.9,64.1,10.9z M64.1,14.7
	h-1.7V12h1.7c0.9,0,1.4,0.7,1.4,1.3C65.5,14,65,14.7,64.1,14.7z M71.4,13.6c-0.8,0-1.7,0.4-2.1,1.2l1,0.4c0.2-0.4,0.6-0.6,1.1-0.6
	c0.6,0,1.2,0.4,1.2,1v0.1c-0.2-0.1-0.7-0.3-1.2-0.3c-1.1,0-2.3,0.6-2.3,1.8c0,1,0.9,1.7,2,1.7c0.8,0,1.2-0.4,1.5-0.8h0v0.6h1.1v-3
	C73.8,14.4,72.7,13.6,71.4,13.6z M71.2,17.9c-0.4,0-0.9-0.2-0.9-0.7c0-0.6,0.7-0.8,1.2-0.8c0.5,0,0.8,0.1,1.1,0.3
	C72.6,17.3,71.9,17.9,71.2,17.9z M77.9,13.8l-1.3,3.4h0l-1.4-3.4h-1.3l2.1,4.7l-1.2,2.6H76l3.2-7.4H77.9z M67.3,18.7h1.2v-7.8h-1.2
	V18.7z"/>
<linearGradient id="SVGID_1_" gradientUnits="userSpaceOnUse" x1="13.7045" y1="6.4196" x2="3.2155" y2="16.986" gradientTransform="matrix(1 0 0 -1 0 26)">
	<stop  offset="0" style="stop-color:#00A0FF"/>
	<stop  offset="6.599999e-03" style="stop-color:#00A1FF"/>
	<stop  offset="0.2601" style="stop-color:#00BEFF"/>
	<stop  offset="0.5122" style="stop-color:#00D2FF"/>
	<stop  offset="0.7604" style="stop-color:#00DFFF"/>
	<stop  offset="1" style="stop-color:#00E3FF"/>
</linearGradient>
<path class="st3" d="M6.6,4.7C6.4,4.9,6.3,5.2,6.3,5.6v13.8c0,0.4,0.1,0.7,0.3,0.9l0,0l7.8-7.7v-0.2L6.6,4.7L6.6,4.7z"/>
<linearGradient id="SVGID_2_" gradientUnits="userSpaceOnUse" x1="21.304" y1="13.4993" x2="6.068" y2="13.4993" gradientTransform="matrix(1 0 0 -1 0 26)">
	<stop  offset="0" style="stop-color:#FFE000"/>
	<stop  offset="0.4087" style="stop-color:#FFBD00"/>
	<stop  offset="0.7754" style="stop-color:#FFA500"/>
	<stop  offset="1" style="stop-color:#FF9C00"/>
</linearGradient>
<path class="st4" d="M17,15.2l-2.6-2.6v-0.2L17,9.8l0.1,0l3.1,1.7c0.9,0.5,0.9,1.3,0,1.8L17,15.2L17,15.2z"/>
<linearGradient id="SVGID_3_" gradientUnits="userSpaceOnUse" x1="10.3897" y1="9.729" x2="-3.8343" y2="24.0579" gradientTransform="matrix(1 0 0 -1 0 26)">
	<stop  offset="0" style="stop-color:#FF3A44"/>
	<stop  offset="1" style="stop-color:#C31162"/>
</linearGradient>
<path class="st5" d="M17.1,15.1l-2.7-2.6l-7.8,7.8c0.3,0.3,0.8,0.3,1.3,0L17.1,15.1z"/>
<linearGradient id="SVGID_4_" gradientUnits="userSpaceOnUse" x1="-0.5644" y1="6.2321" x2="5.7866" y2="12.6305" gradientTransform="matrix(1 0 0 -1 0 26)">
	<stop  offset="0" style="stop-color:#32A071"/>
	<stop  offset="6.850000e-02" style="stop-color:#2DA771"/>
	<stop  offset="0.4762" style="stop-color:#15CF74"/>
	<stop  offset="0.8009" style="stop-color:#06E775"/>
	<stop  offset="1" style="stop-color:#00F076"/>
</linearGradient>
<path class="st6" d="M17.1,9.9L7.9,4.7c-0.5-0.3-1-0.3-1.3,0l7.8,7.8L17.1,9.9z"/>
</svg>
