<svg width="70" height="71" viewBox="0 0 70 71" fill="none" xmlns="http://www.w3.org/2000/svg">
<g id="green" clip-path="url(#clip0_283_433)">
<path id="Vector" fill-rule="evenodd" clip-rule="evenodd" d="M31.7078 0.0697189C19.3441 1.39987 8.66181 8.96923 3.39475 20.1324C-1.16859 29.8038 -1.12965 40.8393 3.50172 50.483C6.78297 57.3152 13.0366 63.5799 19.8568 66.8669C22.4601 68.1217 25.1713 69.0585 27.9479 69.6628C30.9746 70.3218 38.5186 70.3823 41.5179 69.7715C48.5446 68.341 54.4727 65.1358 59.6104 59.9889C67.0326 52.5534 70.6236 42.9397 69.8523 32.5695C68.6732 16.7142 57.1701 3.71483 41.5516 0.587537C39.4096 0.158688 33.6814 -0.142623 31.7078 0.0697189ZM40.6977 1.36613C44.2109 1.97664 47.0087 2.9095 50.2711 4.55806C60.0405 9.49454 66.7316 18.6378 68.6031 29.6083C68.9874 31.8609 69.0372 32.845 68.9371 36.2006C68.8083 40.5191 68.4574 42.6162 67.2693 46.1713C65.6307 51.0747 62.9606 55.3031 58.9505 59.3446C54.0033 64.3307 48.6999 67.2383 41.7175 68.7931C39.9 69.1978 38.9 69.2684 34.9891 69.2684C31.078 69.2684 30.0781 69.1978 28.2605 68.7931C21.2876 67.2405 15.9912 64.3385 11.0167 59.3446C6.09478 54.4035 3.02178 48.8228 1.61544 42.2704C0.900784 38.9411 0.788781 33.0451 1.37503 29.6083C3.99741 14.2353 16.0507 2.80651 31.5085 1.03567C33.7619 0.777528 38.2372 0.938594 40.6977 1.36613ZM45.2318 20.6137C43.2845 21.2556 41.7771 22.5824 40.9677 24.3673C40.5634 25.2585 40.4694 25.8558 40.4641 27.5677L40.4578 29.6726L39.1453 31.2525L37.8328 32.8325L37.7234 29.6574C37.6206 26.6748 37.5819 26.4484 37.0838 25.9179C36.6417 25.4474 36.358 25.3534 35.3784 25.3534C34.4227 25.3534 34.1033 25.4538 33.6667 25.8913L33.1297 26.4291L32.5926 25.8913C31.9314 25.2287 30.2502 25.1397 29.4185 25.7233C29.0447 25.9856 28.8662 26.0174 28.8047 25.8329C28.7522 25.6747 28.2537 25.5725 27.5334 25.5725H26.3484V30.284V34.9954H27.5516H28.7547V31.531C28.7547 27.6602 28.8778 27.2373 29.9685 27.3616L30.6141 27.4352L30.674 31.226L30.7339 35.0168L31.9865 34.9513L33.2391 34.8858L33.2994 31.3951C33.3362 29.2759 33.454 27.7908 33.5997 27.6151C33.9356 27.2095 35.022 27.2487 35.1844 27.6723C35.2574 27.8629 35.3172 29.5886 35.3172 31.5072V34.9954H36.4942C37.6002 34.9954 37.7086 34.9456 38.2823 34.1736C38.6183 33.7218 39.4253 32.7361 40.0756 31.9836L41.258 30.6155L42.2259 31.2825C43.804 32.3701 44.9426 32.7939 46.3011 32.7992C48.8473 32.809 50.6929 31.6772 53.6184 28.3117C54.5612 27.227 55.5297 26.1787 55.7703 25.9819C56.0109 25.7853 56.4419 25.434 56.7277 25.2013C57.1022 24.8967 57.2072 24.6506 57.1029 24.3214C56.8938 23.661 53.7764 21.6896 51.9157 21.0414C49.9533 20.3577 46.6497 20.1463 45.2318 20.6137ZM50.6988 21.9555C51.3889 22.1356 52.4186 22.5204 52.9869 22.8105L54.0203 23.3382L53.2547 23.4601C52.8335 23.5271 51.9476 23.6395 51.2859 23.7101C48.7839 23.9765 45.4685 25.5385 42.8216 27.6986L41.6016 28.6939L41.7038 26.9689C41.7626 25.9727 41.9602 24.9473 42.1712 24.5419C42.715 23.4969 43.9937 22.349 45.0194 21.9848C46.2146 21.5603 49.1269 21.5453 50.6988 21.9555ZM22.9543 22.6563C22.2453 24.3563 22.2635 24.4769 23.2312 24.4769C24.0402 24.4769 24.1531 24.3953 24.8955 23.2749C25.3336 22.6139 25.6922 22.0223 25.6922 21.96C25.6922 21.8981 25.152 21.8472 24.4919 21.8472C23.3152 21.8472 23.2852 21.863 22.9543 22.6563ZM17.8172 28.75V34.9954H19.1297H20.4422V28.75V22.5046H19.1297H17.8172V28.75ZM55.0047 24.8211C55.0047 24.9883 52.3123 28.0444 51.0239 29.3399C49.2734 31.0996 47.2274 31.8657 45.3534 31.4631C44.2975 31.2363 42.3172 30.1244 42.3172 29.7585C42.3172 29.4179 45.1539 27.3867 46.9109 26.4692C48.5054 25.6365 50.2753 25.0266 51.6141 24.8489C52.6929 24.7054 55.0047 24.6865 55.0047 24.8211ZM19.8264 39.6091C18.8765 39.8157 18.0882 40.5791 17.8181 41.5532C17.4418 42.9099 17.5538 46.3808 18.0059 47.3765C18.516 48.4998 18.908 48.8128 19.986 48.9576C20.6417 49.0457 21.061 48.9563 21.6656 48.5989L22.4713 48.1227L22.3514 49.0181C22.2854 49.5107 22.1121 50.0579 21.9662 50.2338C21.574 50.7074 20.4973 50.6366 20.1727 50.1157C19.9557 49.7678 19.6626 49.6775 18.7488 49.6775C17.7596 49.6775 17.5984 49.7364 17.5984 50.0988C17.5984 50.74 18.611 51.8079 19.4965 52.1007C20.4553 52.4177 22.3291 52.255 23.2577 51.7739C24.5833 51.0871 24.6997 50.5625 24.78 44.9113L24.8524 39.8164H23.6317C22.6415 39.8164 22.4109 39.8849 22.4109 40.179C22.4109 40.5106 22.3781 40.5119 22.0277 40.1943C21.4301 39.6524 20.6182 39.4366 19.8264 39.6091ZM30.3953 39.5495C30.1547 39.5992 29.687 39.8953 29.3562 40.2073C28.7643 40.7657 28.7547 40.7672 28.7547 40.2956C28.7547 39.8606 28.6433 39.8164 27.5472 39.8164H26.3397L26.3987 44.473L26.4578 49.1296H27.6609H28.8641L28.9734 45.93C29.0977 42.2928 29.211 42.0077 30.5314 42.0077H31.3797V40.8259C31.3797 39.5981 31.2119 39.3805 30.3953 39.5495ZM34.8438 39.5935C32.7849 39.973 32.0479 41.2663 32.0407 44.5133C32.0329 48.0968 32.8777 49.2392 35.5359 49.2392C37.2577 49.2392 38.078 48.8114 38.6109 47.636C39.2951 46.1262 39.2175 45.9522 37.8601 45.9522C36.7335 45.9522 36.6789 45.9791 36.5555 46.5977C36.4159 47.2963 35.7661 47.7799 35.2389 47.5773C34.8488 47.4274 34.4422 46.3573 34.4422 45.4812V44.8565H36.8546H39.2669L39.1284 43.3773C39.0521 42.5636 38.8185 41.553 38.6087 41.1312C37.9914 39.8889 36.5146 39.2856 34.8438 39.5935ZM42.9376 39.5935C40.8861 39.9715 40.1417 41.2692 40.1345 44.48C40.129 46.9282 40.391 47.7716 41.4292 48.6468C42.0346 49.157 42.3283 49.2392 43.5479 49.2392C45.3571 49.2392 46.1637 48.8296 46.7046 47.636C47.3889 46.1262 47.3112 45.9522 45.9539 45.9522C44.8273 45.9522 44.7726 45.9791 44.6492 46.5977C44.5097 47.2963 43.8598 47.7799 43.3326 47.5773C42.9425 47.4274 42.5359 46.3573 42.5359 45.4812V44.8565H44.9676H47.3994L47.248 43.3773C47.1649 42.5636 46.9319 41.5559 46.7304 41.1373C46.1383 39.9075 44.6099 39.2854 42.9376 39.5935ZM52.5619 39.5389C52.241 39.5851 51.7243 39.8589 51.4134 40.1474C50.8861 40.637 50.8484 40.6436 50.8484 40.2441C50.8484 39.8716 50.6927 39.8164 49.6409 39.8164H48.4334L48.4925 44.473L48.5516 49.1296H49.7547H50.9578L51.0182 45.639C51.0564 43.4375 51.1706 42.0373 51.3277 41.8478C51.4677 41.6788 51.8724 41.576 52.2517 41.613L52.9266 41.679L53.0359 45.4043L53.1453 49.1296L54.4031 49.1954L55.6609 49.2611V45.2948C55.6609 40.4481 55.468 39.8856 53.6922 39.5565C53.3914 39.5008 52.8828 39.4929 52.5619 39.5389ZM36.3672 41.6133C36.5116 41.7579 36.6297 42.2016 36.6297 42.5994C36.6297 43.321 36.6275 43.3225 35.5359 43.3225C34.5437 43.3225 34.4422 43.2763 34.4422 42.8235C34.4422 41.6922 35.6733 40.9182 36.3672 41.6133ZM44.4609 41.6133C44.6053 41.7579 44.7234 42.2016 44.7234 42.5994V43.3225H43.6023H42.4813L42.6192 42.6311C42.6952 42.251 42.8671 41.8072 43.0014 41.645C43.3046 41.2793 44.1101 41.2618 44.4609 41.6133ZM22.0055 42.0625C22.1521 42.3338 22.2788 43.3586 22.2869 44.3404C22.2989 45.8141 22.2274 46.2072 21.876 46.5962C21.3392 47.1905 20.644 47.1006 20.2869 46.3904C19.9462 45.7135 19.9204 43.1915 20.2449 42.2595C20.4389 41.7018 20.6054 41.5695 21.1122 41.5695C21.5377 41.5695 21.8249 41.7278 22.0055 42.0625Z" fill="#2F2F2F"/>
</g>
<defs>
<clipPath id="clip0_283_433">
<rect width="70" height="71" fill="white"/>
</clipPath>
</defs>
</svg>
