<svg width="238" height="238" viewBox="0 0 238 238" fill="none" xmlns="http://www.w3.org/2000/svg">
<path d="M180 72.6665C180 73.1529 180 75.5011 180 75.5011C180 90.3774 174.518 104.732 164.604 115.823C154.689 126.913 141.035 133.962 126.252 135.622C111.468 137.282 96.5916 133.437 84.4638 124.822C72.3359 116.207 63.8073 103.426 60.5074 88.9202C57.2075 74.4146 59.3676 59.2016 66.5751 46.1879C73.7827 33.1742 85.5322 23.2722 99.5789 18.3739C113.626 13.4755 128.985 13.9241 142.722 19.634C156.458 25.3439 167.61 35.9148 174.046 49.327L168.938 51.7758C163.182 39.6699 153.203 30.083 140.875 24.8168C128.548 19.5507 114.722 18.9678 101.996 23.1777C89.2694 27.3877 78.5185 36.1006 71.7637 47.6791C65.0089 59.2576 62.7153 72.9044 65.3138 86.0549C67.9124 99.2054 75.2242 110.954 85.8752 119.093C96.5263 127.232 109.783 131.201 123.154 130.254C136.526 129.307 149.091 123.51 158.488 113.951C167.886 104.392 173.469 91.7296 174.188 78.3441H144.232V72.6665H180Z" fill="url(#paint0_linear_0_253)"/>
<path d="M116.999 26.9999V124H122.716V83.4661L150.647 111.021L154.701 107.03L122.741 75.4999L155.999 42.6896L151.945 38.6898L122.716 67.5254V26.9999H116.999Z" fill="black"/>
<path d="M43 176.367C43.004 179.642 42.1573 182.863 40.5412 185.72C38.9823 188.519 36.7012 190.857 33.9313 192.495C31.0902 194.169 27.839 195.035 24.5341 194.999C21.1797 195.041 17.8805 194.15 15.0107 192.429C12.2267 190.749 9.94504 188.364 8.40074 185.52C6.79422 182.592 5.96822 179.307 6.00094 175.975C5.97165 172.647 6.81605 169.369 8.45126 166.463C10.038 163.608 12.363 161.223 15.1875 159.554C18.0267 157.856 21.2855 156.972 24.6015 157.001C27.3915 156.983 30.1474 157.608 32.6514 158.828C35.0949 160.002 37.2349 161.714 38.9077 163.834L34.3775 167.264C33.2587 165.742 31.8006 164.497 30.1168 163.626C28.4045 162.732 26.4949 162.273 24.5594 162.291C22.2512 162.257 19.9843 162.898 18.042 164.135C16.1084 165.373 14.5444 167.102 13.5119 169.141C12.4377 171.265 11.8784 173.607 11.8784 175.983C11.8784 178.358 12.4377 180.701 13.5119 182.825C14.543 184.865 16.1074 186.594 18.042 187.831C19.9855 189.065 22.2516 189.706 24.5594 189.675C26.5635 189.701 28.538 189.194 30.2768 188.207C31.9787 187.244 33.4226 185.891 34.487 184.26C35.569 182.598 36.2597 180.716 36.5079 178.753H23.9531V174.314H43V176.367Z" fill="url(#paint1_linear_0_253)"/>
<path d="M58.7751 176.206L73.6402 195H66.8376L53.6941 178.152V195H48V158.001H53.6773V174.504L65.9305 158.001H72.3721L58.7751 176.206ZM77.5539 195H97.9367V189.946H83.1808V178.902H97.668V173.965H83.1808V163.073H97.9367V158.018H77.5539V195ZM120.738 179.171L129.817 195H123.468L115.069 179.618H110.03V195H104.395V158.001H117.832C119.755 157.973 121.656 158.419 123.367 159.299C124.997 160.155 126.353 161.454 127.281 163.047C128.202 164.785 128.699 166.718 128.731 168.686C128.764 170.654 128.33 172.602 127.465 174.369C126.734 175.764 125.666 176.951 124.358 177.823C123.274 178.553 122.034 179.015 120.738 179.171ZM115.825 175.49C117.678 175.58 119.505 175.02 120.99 173.906C122.284 172.836 122.93 171.219 122.93 169.037C122.93 166.855 122.292 165.238 121.007 164.193C119.531 163.08 117.712 162.523 115.867 162.618H110.056V175.49H115.825ZM150.737 158.001L164.595 195H158.607L155.524 186.483H140.231L137.107 195H131.068L144.976 158.001H150.737ZM153.685 181.412L147.924 165.221H147.831L142.062 181.412H153.685ZM161.084 163.073H170.742V195H176.42V163.073H186.078V158.018H161.084V163.073ZM191.318 195H196.954V158.001H191.318V195ZM226.373 158.001V186.483L210.895 158.001H204.462V195H210.097V166.476L225.567 195H232V158.001H226.373Z" fill="black"/>
<path d="M64.247 209.644C64.6272 209.888 64.9315 210.224 65.1286 210.617C65.3258 211.01 65.4086 211.445 65.3687 211.878C65.3701 212.348 65.2642 212.813 65.0581 213.241C64.8772 213.63 64.6128 213.98 64.2815 214.268C64.0293 214.499 63.7114 214.655 63.3669 214.717C63.777 214.765 64.1714 214.895 64.5231 215.1C64.9483 215.347 65.306 215.685 65.5672 216.087C65.8664 216.548 66.0163 217.081 65.9986 217.621C66.0151 218.237 65.8699 218.848 65.5758 219.399C65.2893 219.909 64.8392 220.32 64.2902 220.573C63.6206 220.876 62.8835 221.022 62.1417 220.997H58V209.007H61.3737C62.3761 208.956 63.3732 209.176 64.247 209.644ZM62.9614 213.991C63.2927 213.794 63.5565 213.511 63.7207 213.175C63.8821 212.84 63.9645 212.475 63.9623 212.107C63.9927 211.823 63.9488 211.536 63.8345 211.271C63.7201 211.006 63.5388 210.773 63.3065 210.59C62.7505 210.251 62.0946 210.088 61.4341 210.125H59.4064V214.325H61.7189C62.1556 214.344 62.5881 214.239 62.9614 214.024V213.991ZM63.9795 219.227C64.3655 218.764 64.5616 218.185 64.5317 217.596C64.5429 217.202 64.4384 216.812 64.2297 216.471C64.0268 216.141 63.727 215.875 63.3669 215.704C62.9254 215.506 62.4402 215.411 61.9518 215.427H59.4064V219.872H62.0813C62.4258 219.908 62.7746 219.872 63.1027 219.766C63.4308 219.661 63.7302 219.488 63.9795 219.26V219.227Z" fill="black"/>
<path d="M75 210.218H69.4504V214.367H74.8559V215.56H69.4504V219.75H75V221H68V209H75V210.218Z" fill="black"/>
<path d="M87 221H85.4761L84.3201 218.02H78.6887L77.5326 221H76L80.7293 209H82.2444L87 221ZM81.5525 210.718L79.1178 216.783H83.7946L81.5525 210.718Z" fill="black"/>
<path d="M96.9985 216.958C97.0195 217.896 96.8202 218.824 96.4191 219.657C96.0487 220.39 95.4898 220.993 94.8096 221.392C94.0975 221.792 93.3067 222 92.5041 222C91.7015 222 90.9107 221.792 90.1986 221.392C89.5184 220.993 88.9595 220.39 88.5891 219.657C88.1816 218.826 87.9792 217.897 88.0017 216.958V209H89.3134V216.897C89.2991 217.589 89.4428 218.275 89.7318 218.893C89.9862 219.447 90.3828 219.911 90.8745 220.229C91.3664 220.526 91.9205 220.681 92.484 220.681C93.0475 220.681 93.6016 220.526 94.0934 220.229C94.5787 219.908 94.9693 219.444 95.2201 218.893C95.5023 218.272 95.643 217.588 95.6305 216.897V209H96.9502L96.9985 216.958Z" fill="black"/>
<path d="M99 209H107V210.218H103.669V221H102.331V210.218H99V209Z" fill="black"/>
<path d="M109.687 209L112.983 215.106L116.261 209H118L113.722 216.664V221H112.296V216.697L108 209.032L109.687 209Z" fill="black"/>
<path d="M134.992 215.624C134.978 216.74 134.694 217.834 134.168 218.808C133.667 219.766 132.927 220.567 132.026 221.129C131.106 221.699 130.053 222 128.981 222C127.909 222 126.857 221.699 125.937 221.129C125.031 220.548 124.289 219.73 123.787 218.756C123.27 217.753 123 216.633 123 215.496C123 214.359 123.27 213.239 123.787 212.236C124.294 211.255 125.045 210.433 125.962 209.854C126.876 209.277 127.931 208.981 129.002 209.001C129.902 208.996 130.791 209.209 131.597 209.624C132.387 210.03 133.079 210.613 133.624 211.331L132.561 212.184C132.162 211.607 131.633 211.138 131.021 210.819C130.396 210.486 129.704 210.316 129.002 210.324C128.164 210.311 127.342 210.555 126.637 211.024C125.934 211.487 125.365 212.139 124.989 212.91C124.6 213.712 124.397 214.598 124.397 215.496C124.397 216.394 124.6 217.28 124.989 218.082C125.364 218.858 125.934 219.515 126.637 219.985C127.342 220.454 128.164 220.698 129.002 220.685C129.771 220.696 130.527 220.483 131.185 220.071C131.84 219.671 132.385 219.104 132.767 218.424C133.17 217.734 133.41 216.957 133.468 216.153H128.812V214.958H135L134.992 215.624Z" fill="black"/>
<path d="M143.957 209.407C144.489 209.672 144.932 210.084 145.231 210.592C145.564 211.15 145.731 211.788 145.71 212.435C145.727 213.055 145.575 213.668 145.272 214.213C145.014 214.668 144.645 215.054 144.196 215.333C143.83 215.572 143.41 215.719 142.972 215.763L146 220.968H144.469L141.599 215.861H139.382V221H138V209.001H142.137C142.768 208.99 143.392 209.129 143.957 209.407ZM143.609 214.278C143.857 214.053 144.049 213.777 144.173 213.469C144.296 213.161 144.346 212.83 144.321 212.5C144.347 212.172 144.296 211.843 144.173 211.538C144.05 211.232 143.857 210.959 143.609 210.738C143.058 210.331 142.379 210.127 141.69 210.162H139.382V214.862H141.69C142.373 214.882 143.041 214.663 143.576 214.245L143.609 214.278Z" fill="black"/>
<path d="M147.846 212.25C148.349 211.273 149.095 210.454 150.007 209.877C150.923 209.303 151.973 209 153.043 209C154.113 209 155.163 209.303 156.079 209.877C156.986 210.451 157.727 211.268 158.223 212.242C158.733 213.245 159 214.362 159 215.496C159 216.63 158.733 217.746 158.223 218.75C157.728 219.721 156.99 220.538 156.087 221.115C155.166 221.694 154.108 222 153.031 222C151.953 222 150.896 221.694 149.974 221.115C149.066 220.539 148.323 219.722 147.822 218.75C147.288 217.752 147.006 216.632 147 215.491C147.006 214.353 147.297 213.236 147.846 212.25ZM149.038 218.069C149.413 218.842 149.98 219.497 150.681 219.966C151.387 220.422 152.203 220.663 153.035 220.663C153.867 220.663 154.682 220.422 155.389 219.966C156.09 219.498 156.658 218.842 157.032 218.069C157.416 217.268 157.615 216.386 157.615 215.491C157.615 214.597 157.416 213.715 157.032 212.914C156.658 212.145 156.09 211.495 155.389 211.034C154.681 210.577 153.864 210.336 153.031 210.336C152.197 210.336 151.38 210.577 150.673 211.034C149.972 211.497 149.405 212.146 149.029 212.914C148.641 213.713 148.438 214.596 148.438 215.491C148.438 216.387 148.641 217.269 149.029 218.069H149.038Z" fill="black"/>
<path d="M169.998 216.958C170.02 217.896 169.82 218.824 169.419 219.657C169.044 220.387 168.485 220.988 167.808 221.392C167.095 221.792 166.303 222 165.5 222C164.697 222 163.905 221.792 163.192 221.392C162.513 220.991 161.954 220.389 161.581 219.657C161.18 218.824 160.98 217.896 161.002 216.958V209H162.306V216.897C162.296 217.589 162.44 218.273 162.725 218.893C162.982 219.445 163.379 219.909 163.869 220.229C164.361 220.526 164.916 220.681 165.48 220.681C166.044 220.681 166.598 220.526 167.091 220.229C167.581 219.911 167.975 219.447 168.226 218.893C168.509 218.272 168.65 217.588 168.637 216.897V209H169.958L169.998 216.958Z" fill="black"/>
<path d="M178.125 209.366C178.688 209.6 179.167 210.005 179.498 210.527C179.85 211.123 180.024 211.812 179.997 212.508C180.02 213.222 179.847 213.928 179.498 214.546C179.172 215.09 178.69 215.518 178.117 215.772C177.484 216.044 176.804 216.179 176.118 216.169H174.285V221H173V209.001H176.118C176.804 208.989 177.485 209.113 178.125 209.366ZM177.855 214.44C178.129 214.214 178.344 213.922 178.482 213.591C178.621 213.26 178.678 212.899 178.649 212.541C178.679 212.187 178.622 211.832 178.484 211.507C178.345 211.183 178.129 210.899 177.855 210.681C177.225 210.284 176.492 210.092 175.753 210.129H174.277V215H175.753C176.494 215.051 177.232 214.855 177.855 214.44Z" fill="black"/>
<defs>
<linearGradient id="paint0_linear_0_253" x1="65.5164" y1="48.0438" x2="173.375" y2="103" gradientUnits="userSpaceOnUse">
<stop stop-color="#DCC161"/>
<stop offset="0.7" stop-color="#C59E47"/>
<stop offset="1" stop-color="#B28231"/>
</linearGradient>
<linearGradient id="paint1_linear_0_253" x1="5.97567" y1="175.991" x2="43" y2="175.991" gradientUnits="userSpaceOnUse">
<stop stop-color="#DCC161"/>
<stop offset="0.7" stop-color="#C59E47"/>
<stop offset="1" stop-color="#B28231"/>
</linearGradient>
</defs>
</svg>
