<svg width="163" height="44" viewBox="0 0 163 44" fill="none" xmlns="http://www.w3.org/2000/svg">
<path d="M27 13.7606C27.003 16.0877 26.3851 18.3765 25.2058 20.4065C24.0682 22.395 22.4036 24.0562 20.3823 25.2204C18.309 26.4094 15.9366 27.0247 13.5249 26.999C11.0771 27.0288 8.66957 26.3962 6.57539 25.173C4.54383 23.9796 2.87881 22.2851 1.75189 20.2642C0.579563 18.184 -0.0231889 15.8496 0.000682431 13.4819C-0.0206885 11.1176 0.595497 8.7886 1.78876 6.72343C2.94663 4.69515 4.64329 3.00086 6.70442 1.81461C8.77621 0.60824 11.1543 -0.019777 13.5741 0.000474764C15.61 -0.0121987 17.6211 0.432301 19.4483 1.29882C21.2314 2.13301 22.7931 3.34976 24.0137 4.85594L20.7079 7.29256C19.8915 6.2116 18.8275 5.32703 17.5988 4.70773C16.3492 4.07242 14.9557 3.74648 13.5433 3.75917C11.859 3.73519 10.2047 4.19092 8.78744 5.06937C7.37644 5.9494 6.23507 7.17754 5.48165 8.62648C4.69778 10.1354 4.28961 11.8 4.28961 13.4879C4.28961 15.1757 4.69778 16.8403 5.48165 18.3493C6.23407 19.7989 7.37565 21.0272 8.78744 21.9064C10.2056 22.7829 11.8593 23.2385 13.5433 23.2166C15.0058 23.2353 16.4466 22.8749 17.7155 22.1732C18.9575 21.4891 20.0111 20.5275 20.7878 19.369C21.5774 18.188 22.0814 16.8506 22.2625 15.4561H13.1009V12.3022H27V13.7606Z" fill="url(#paint0_linear_0_55)"/>
<path d="M37.7885 12.7933L48.5334 26H43.6163L34.1158 14.1607V26H30V0.000877109L34.1037 0.000877109V11.5975L42.9607 0.000877109L47.6168 0.000877109L37.7885 12.7933ZM51.3623 26H66.0956V22.4482H55.4296V14.6875H65.9013V11.2186H55.4296V3.56451H66.0956V0.0127189L51.3623 0.0127189V26ZM82.5772 14.877L89.1394 26H84.5501L78.4795 15.1907H74.8372V26H70.7638V0.000877109L80.4767 0.000877109C81.8666 -0.0188414 83.2403 0.294184 84.4773 0.912509C85.6552 1.51405 86.6356 2.42699 87.3061 3.54675C87.9722 4.76804 88.3316 6.12601 88.3548 7.50909C88.378 8.89217 88.0644 10.2609 87.4397 11.5028C86.9113 12.4825 86.139 13.3171 85.1936 13.9298C84.4104 14.4426 83.5138 14.7671 82.5772 14.877ZM79.0259 12.2901C80.3652 12.3536 81.6853 11.9601 82.7593 11.1772C83.6941 10.4254 84.1616 9.28882 84.1616 7.75563C84.1616 6.22244 83.7002 5.08586 82.7714 4.35183C81.7041 3.57003 80.3893 3.17828 79.0562 3.24485H74.8554V12.2901H79.0259ZM104.261 0.000877109L114.278 26H109.949L107.721 20.0152H96.6669L94.4087 26H90.044L100.097 0.000877109L104.261 0.000877109ZM106.392 16.4516L102.228 5.07403H102.161L97.9903 16.4516H106.392ZM111.74 3.56451H118.721V26H122.825V3.56451H129.806V0.0127189L111.74 0.0127189V3.56451ZM133.594 26H137.668V0.000877109L133.594 0.000877109V26ZM158.933 0.000877109V20.0152L147.745 0.000877109L143.095 0.000877109V26H147.168V5.95605L158.35 26H163V0.000877109L158.933 0.000877109Z" fill="black"/>
<path d="M43.9044 35.4827C44.142 35.6662 44.3322 35.9183 44.4554 36.2129C44.5786 36.5075 44.6304 36.834 44.6054 37.1588C44.6063 37.5113 44.5401 37.8597 44.4113 38.1804C44.2983 38.4727 44.133 38.7352 43.926 38.9512C43.7683 39.1241 43.5697 39.241 43.3543 39.2877C43.6106 39.3235 43.8571 39.4215 44.077 39.5752C44.3427 39.7603 44.5663 40.0139 44.7295 40.3154C44.9165 40.6606 45.0102 41.0605 44.9991 41.4655C45.0094 41.9279 44.9187 42.3861 44.7349 42.799C44.5558 43.1816 44.2745 43.49 43.9313 43.6799C43.5129 43.9071 43.0522 44.0163 42.5885 43.998H40V35.0055H42.1086C42.7351 34.9667 43.3582 35.1323 43.9044 35.4827ZM43.1009 38.7432C43.3079 38.5958 43.4728 38.3833 43.5754 38.1315C43.6763 37.8799 43.7278 37.6065 43.7264 37.3301C43.7454 37.1169 43.718 36.9016 43.6465 36.7033C43.5751 36.5049 43.4618 36.3294 43.3166 36.1923C42.969 35.938 42.5592 35.8159 42.1463 35.8436H40.879V38.9941H42.3243C42.5972 39.0078 42.8676 38.929 43.1009 38.7677V38.7432ZM43.7372 42.6706C43.9784 42.3232 44.101 41.8888 44.0823 41.4471C44.0893 41.1513 44.024 40.8591 43.8936 40.6029C43.7668 40.356 43.5794 40.1562 43.3543 40.0279C43.0784 39.8795 42.7751 39.8082 42.4699 39.8199H40.879V43.1538H42.5508C42.7661 43.1811 42.9841 43.1541 43.1892 43.0748C43.3943 42.9955 43.5814 42.8658 43.7372 42.695V42.6706Z" fill="black"/>
<path d="M51 35.9134H47.8288V39.025H50.9176V39.9202H47.8288V43.0622H51V44H47V35H51V35.9134Z" fill="black"/>
<path d="M59 43.9998H58.0303L57.2946 41.765H53.711L52.9753 43.9998H52L55.0096 34.9998H55.9737L59 43.9998ZM55.5334 36.2881L53.9841 40.8369H56.9602L55.5334 36.2881Z" fill="black"/>
<path d="M65.999 40.5092C66.013 41.1585 65.8801 41.8013 65.6127 42.3777C65.3658 42.8855 64.9932 43.3027 64.5398 43.5792C64.065 43.8557 63.5378 44 63.0027 44C62.4677 44 61.9405 43.8557 61.4657 43.5792C61.0123 43.3027 60.6397 42.8855 60.3928 42.3777C60.121 41.8029 59.9862 41.1594 60.0011 40.5092V35H60.8756V40.4672C60.8661 40.9464 60.9619 41.4209 61.1546 41.849C61.3241 42.2327 61.5885 42.5539 61.9164 42.7742C62.2443 42.9794 62.6137 43.0871 62.9893 43.0871C63.365 43.0871 63.7344 42.9794 64.0623 42.7742C64.3858 42.5516 64.6462 42.2307 64.8134 41.849C65.0016 41.4193 65.0954 40.9456 65.087 40.4672V35H65.9668L65.999 40.5092Z" fill="black"/>
<path d="M68 35H74V35.9134H71.502V44H70.498V35.9134H68V35Z" fill="black"/>
<path d="M75.1809 34.9998L77.4878 39.5789L79.7826 34.9998H81L78.0052 40.7481V43.9998H77.007V40.7724L74 35.0241L75.1809 34.9998Z" fill="black"/>
<path d="M91.9945 39.5859C91.9851 40.3583 91.7963 41.116 91.4452 41.7899C91.1111 42.4532 90.618 43.0081 90.0171 43.3971C89.4037 43.7916 88.7023 44 87.9876 44C87.2728 44 86.5714 43.7916 85.958 43.3971C85.3539 42.9949 84.8594 42.4283 84.5244 41.7544C84.1801 41.0597 84 40.2845 84 39.4973C84 38.71 84.1801 37.9348 84.5244 37.2401C84.8625 36.5613 85.3631 35.9922 85.9745 35.5915C86.5842 35.1917 87.2872 34.9867 88.0013 35.0007C88.6014 34.9972 89.194 35.1449 89.7315 35.432C90.2579 35.713 90.7195 36.1167 91.0827 36.6138L90.3742 37.2046C90.1078 36.8048 89.7554 36.4804 89.347 36.2592C88.931 36.029 88.4691 35.9114 88.0013 35.9165C87.443 35.9078 86.8946 36.0763 86.4249 36.401C85.9561 36.722 85.5766 37.1732 85.3263 37.7069C85.0665 38.2623 84.9311 38.8755 84.9311 39.4973C84.9311 40.119 85.0665 40.7322 85.3263 41.2876C85.5763 41.8247 85.9557 42.2797 86.4249 42.6053C86.8946 42.93 87.443 43.0985 88.0013 43.0898C88.5139 43.0969 89.0181 42.9495 89.4569 42.6644C89.8935 42.3878 90.2566 41.9951 90.5115 41.524C90.7798 41.0468 90.9398 40.5083 90.9783 39.9522H87.875V39.125H92L91.9945 39.5859Z" fill="black"/>
<path d="M98.4674 35.3047C98.8669 35.504 99.1989 35.8128 99.423 36.1937C99.6731 36.6119 99.7979 37.0911 99.7828 37.5759C99.795 38.041 99.6816 38.5011 99.454 38.9094C99.2607 39.251 98.9834 39.5399 98.6474 39.7496C98.3723 39.9284 98.0572 40.0392 97.7291 40.0723L100 43.9754H98.8521L96.6991 40.1454H95.0362V43.9998H94V35.0002H97.1024C97.5758 34.9919 98.0442 35.0964 98.4674 35.3047ZM98.2068 38.9581C98.3925 38.7897 98.537 38.5823 98.6294 38.3514C98.7218 38.1204 98.7598 37.8719 98.7404 37.6246C98.7602 37.379 98.7224 37.1322 98.6299 36.9032C98.5374 36.6741 98.3927 36.4689 98.2068 36.3033C97.7936 35.9977 97.284 35.8447 96.7673 35.8709H95.0362V39.3965H96.7673C97.2798 39.4109 97.7809 39.247 98.182 38.9337L98.2068 38.9581Z" fill="black"/>
<path d="M100.564 37.2501C100.899 36.5738 101.397 36.0064 102.005 35.6069C102.615 35.2099 103.315 35 104.029 35C104.742 35 105.442 35.2099 106.053 35.6069C106.657 36.0046 107.151 36.5702 107.482 37.2442C107.822 37.9388 108 38.712 108 39.497C108 40.282 107.822 41.0552 107.482 41.7498C107.152 42.4224 106.66 42.9877 106.058 43.3872C105.444 43.788 104.739 44 104.02 44C103.302 44 102.597 43.788 101.983 43.3872C101.378 42.9883 100.882 42.4231 100.548 41.7498C100.192 41.0591 100.004 40.2835 100 39.4941C100.004 38.7061 100.198 37.9328 100.564 37.2501ZM101.358 41.2786C101.608 41.8135 101.987 42.2669 102.454 42.5921C102.925 42.9074 103.468 43.0745 104.023 43.0745C104.578 43.0745 105.122 42.9074 105.592 42.5921C106.06 42.2675 106.439 41.814 106.688 41.2786C106.944 40.724 107.077 40.1132 107.077 39.4941C107.077 38.8749 106.944 38.2642 106.688 37.7095C106.439 37.1772 106.06 36.7274 105.592 36.4079C105.121 36.0921 104.576 35.9247 104.02 35.9247C103.465 35.9247 102.92 36.0921 102.448 36.4079C101.981 36.7285 101.603 37.178 101.353 37.7095C101.094 38.2631 100.959 38.8743 100.959 39.4941C100.959 40.1139 101.094 40.725 101.353 41.2786H101.358Z" fill="black"/>
<path d="M115.999 40.5092C116.013 41.1585 115.88 41.8013 115.612 42.3777C115.362 42.8831 114.99 43.2995 114.538 43.5792C114.063 43.8557 113.536 44 113 44C112.464 44 111.937 43.8557 111.462 43.5792C111.009 43.3013 110.636 42.8845 110.388 42.3777C110.12 41.8013 109.987 41.1585 110.001 40.5092V35H110.871V40.4672C110.864 40.9461 110.96 41.4198 111.15 41.849C111.322 42.2314 111.586 42.552 111.913 42.7742C112.241 42.9794 112.611 43.0871 112.987 43.0871C113.363 43.0871 113.732 42.9794 114.061 42.7742C114.387 42.5535 114.65 42.2323 114.818 41.849C115.006 41.4193 115.1 40.9456 115.092 40.4672V35H115.972L115.999 40.5092Z" fill="black"/>
<path d="M121.661 35.2744C122.063 35.4499 122.405 35.7539 122.641 36.1451C122.893 36.5921 123.017 37.1087 122.998 37.6308C123.015 38.1661 122.891 38.6956 122.641 39.1591C122.408 39.5673 122.064 39.8884 121.655 40.0785C121.203 40.2824 120.717 40.384 120.227 40.3769H118.918V43.9998H118V35.0004H120.227C120.717 34.9912 121.204 35.0842 121.661 35.2744ZM121.468 39.0799C121.663 38.9101 121.817 38.6915 121.916 38.4431C122.015 38.1948 122.056 37.9243 122.035 37.6551C122.056 37.3903 122.016 37.124 121.917 36.8804C121.818 36.6368 121.664 36.4237 121.468 36.2608C121.018 35.963 120.494 35.8187 119.966 35.8467H118.912V39.5001H119.966C120.496 39.5383 121.023 39.3908 121.468 39.0799Z" fill="black"/>
<defs>
<linearGradient id="paint0_linear_0_55" x1="-0.0177513" y1="13.4938" x2="27" y2="13.4938" gradientUnits="userSpaceOnUse">
<stop stop-color="#DCC161"/>
<stop offset="0.7" stop-color="#C59E47"/>
<stop offset="1" stop-color="#B28231"/>
</linearGradient>
</defs>
</svg>
