<svg width="132" height="121" viewBox="0 0 132 121" fill="none" xmlns="http://www.w3.org/2000/svg">
<g id="Group 5930">
<g id="Group 5929">
<path id="Vector" d="M102 33.8374C102 34.1228 102 35.5006 102 35.5006C102 44.2297 98.7836 52.6527 92.9657 59.1604C87.1479 65.668 79.1364 69.804 70.4618 70.7782C61.7873 71.7523 53.0579 69.4963 45.9416 64.4412C38.8252 59.3861 33.8208 51.8863 31.8845 43.3747C29.9482 34.8631 31.2157 25.9365 35.4449 18.3003C39.6741 10.6642 46.5685 4.85396 54.8108 1.9797C63.0531 -0.894569 72.0654 -0.631333 80.1258 2.71911C88.1863 6.06955 94.7298 12.2723 98.5061 20.1423L95.5092 21.5792C92.1315 14.4757 86.2759 8.85035 79.0426 5.76029C71.8094 2.67022 63.6967 2.32821 56.229 4.79851C48.7614 7.26882 42.453 12.3814 38.4895 19.1754C34.5259 25.9693 33.18 33.977 34.7048 41.6934C36.2296 49.4098 40.52 56.3037 46.7698 61.0795C53.0195 65.8553 60.7983 68.1842 68.6443 67.6286C76.4903 67.0729 83.8632 63.6709 89.3775 58.0619C94.8918 52.4529 98.1678 45.0231 98.5898 37.1689H81.012V33.8374H102Z" fill="url(#paint0_linear_0_117)"/>
<path id="Vector_2" d="M64 7V64H67.3715V40.1812L83.8436 56.3734L86.2347 54.028L67.3865 35.5L87 16.2197L84.609 13.8693L67.3715 30.8139V7H64Z" fill="black"/>
<path id="Vector_3" d="M22 94.2123C22.0024 96.1085 21.4989 97.9734 20.538 99.6275C19.6111 101.248 18.2548 102.601 16.6078 103.55C14.9185 104.519 12.9854 105.02 11.0203 104.999C9.02577 105.023 7.06409 104.508 5.35772 103.511C3.70238 102.539 2.3457 101.158 1.42746 99.5116C0.472237 97.8166 -0.0188946 95.9145 0.000556055 93.9853C-0.0168573 92.0588 0.48522 90.1611 1.45751 88.4784C2.40096 86.8257 3.78342 85.4451 5.46286 84.4786C7.15099 83.4956 9.08871 82.9839 11.0604 83.0004C12.7193 82.9901 14.3579 83.3522 15.8468 84.0583C17.2997 84.738 18.5721 85.7294 19.5667 86.9567L16.8731 88.9421C16.2079 88.0613 15.3409 87.3405 14.3397 86.8359C13.3216 86.3183 12.1861 86.0527 11.0353 86.063C9.66289 86.0435 8.31496 86.4148 7.16014 87.1306C6.01043 87.8477 5.08042 88.8484 4.46653 90.029C3.82782 91.2585 3.49524 92.6148 3.49524 93.9901C3.49524 95.3654 3.82782 96.7218 4.46653 97.9513C5.07961 99.1324 6.00979 100.133 7.16014 100.85C8.3157 101.564 9.66313 101.935 11.0353 101.917C12.2269 101.932 13.401 101.639 14.4349 101.067C15.4468 100.51 16.3053 99.7261 16.9382 98.7821C17.5816 97.8198 17.9923 96.7302 18.1398 95.5939H10.6748V93.024H22V94.2123Z" fill="url(#paint1_linear_0_117)"/>
<path id="Vector_4" d="M31.266 93.8251L39.9104 105H35.9544L28.3112 94.9821V105H25V83.0007H28.3015V92.8133L35.427 83.0007H39.1729L31.266 93.8251ZM42.1862 105H54.0393V101.995H45.4584V95.4279H53.883V92.4927H45.4584V86.0161H54.0393V83.0108H42.1862V105ZM67.2989 95.5882L72.5783 105H68.8862L64.0023 95.8537H61.072V105H57.795V83.0007H65.6091C66.7273 82.9841 67.8324 83.2489 68.8276 83.7721C69.7753 84.2811 70.564 85.0536 71.1034 86.0011C71.6393 87.0345 71.9284 88.1836 71.9471 89.3538C71.9658 90.5241 71.7135 91.6823 71.2109 92.7331C70.7858 93.5621 70.1644 94.2683 69.4039 94.7868C68.7738 95.2206 68.0524 95.4953 67.2989 95.5882ZM64.4419 93.3993C65.5194 93.4531 66.5814 93.1201 67.4454 92.4576C68.1975 91.8215 68.5736 90.8598 68.5736 89.5625C68.5736 88.2651 68.2024 87.3034 67.4552 86.6823C66.5966 86.0208 65.5388 85.6893 64.4663 85.7456H61.0867V93.3993H64.4419ZM84.744 83.0007L92.8023 105H89.3201L87.5278 99.936H78.6343L76.8175 105H73.306L81.3937 83.0007H84.744ZM86.4582 96.9206L83.1079 87.2934H83.0542L79.699 96.9206H86.4582ZM90.7609 86.0161H96.3773V105H99.6788V86.0161H105.295V83.0108H90.7609V86.0161ZM108.343 105H111.62V83.0007H108.343V105ZM128.728 83.0007V99.936L119.727 83.0007H115.986V105H119.263V88.0397L128.259 105H132V83.0007H128.728Z" fill="black"/>
<path id="Vector_5" d="M33.9044 114.375C34.142 114.518 34.3322 114.714 34.4554 114.943C34.5786 115.172 34.6304 115.426 34.6054 115.679C34.6063 115.953 34.5401 116.224 34.4113 116.474C34.2983 116.701 34.133 116.905 33.926 117.073C33.7683 117.208 33.5697 117.299 33.3543 117.335C33.6106 117.363 33.8571 117.439 34.077 117.558C34.3427 117.702 34.5663 117.9 34.7295 118.134C34.9165 118.403 35.0102 118.714 34.9991 119.029C35.0094 119.388 34.9187 119.745 34.7349 120.066C34.5558 120.363 34.2745 120.603 33.9313 120.751C33.5129 120.928 33.0522 121.013 32.5885 120.998H30V114.004H32.1086C32.7351 113.974 33.3582 114.103 33.9044 114.375ZM33.1009 116.911C33.3079 116.797 33.4728 116.631 33.5754 116.436C33.6763 116.24 33.7278 116.027 33.7264 115.812C33.7454 115.646 33.718 115.479 33.6465 115.325C33.5751 115.17 33.4618 115.034 33.3166 114.927C32.969 114.73 32.5592 114.635 32.1463 114.656H30.879V117.106H32.3243C32.5972 117.117 32.8676 117.056 33.1009 116.93V116.911ZM33.7372 119.966C33.9784 119.696 34.101 119.358 34.0823 119.014C34.0893 118.784 34.024 118.557 33.8936 118.358C33.7668 118.166 33.5794 118.01 33.3543 117.911C33.0784 117.795 32.7751 117.74 32.4699 117.749H30.879V120.342H32.5508C32.7661 120.363 32.9841 120.342 33.1892 120.28C33.3943 120.219 33.5814 120.118 33.7372 119.985V119.966Z" fill="black"/>
<path id="Vector_6" d="M40 114.71H36.8288V117.131H39.9176V117.827H36.8288V120.271H40V121H36V114H40V114.71Z" fill="black"/>
<path id="Vector_7" d="M47 121H46.1688L45.5382 119.262H42.4666L41.836 121H41L43.5796 114H44.4061L47 121ZM44.0287 115.002L42.7006 118.54H45.2516L44.0287 115.002Z" fill="black"/>
<path id="Vector_8" d="M52.9992 118.285C53.0108 118.79 52.9001 119.29 52.6773 119.738C52.4715 120.133 52.161 120.458 51.7831 120.673C51.3875 120.888 50.9482 121 50.5023 121C50.0564 121 49.617 120.888 49.2214 120.673C48.8435 120.458 48.5331 120.133 48.3273 119.738C48.1009 119.291 47.9885 118.791 48.0009 118.285V114H48.7297V118.252C48.7217 118.625 48.8016 118.994 48.9621 119.327C49.1034 119.625 49.3238 119.875 49.597 120.047C49.8702 120.206 50.1781 120.29 50.4911 120.29C50.8042 120.29 51.112 120.206 51.3852 120.047C51.6548 119.873 51.8719 119.624 52.0111 119.327C52.168 118.993 52.2461 118.624 52.2391 118.252V114H52.9723L52.9992 118.285Z" fill="black"/>
<path id="Vector_9" d="M54 114H59V114.71H56.9184V121H56.0816V114.71H54V114Z" fill="black"/>
<path id="Vector_10" d="M61.0122 114L62.9896 117.562L64.9565 114H66L63.433 118.471V121H62.5774V118.49L60 114.019L61.0122 114Z" fill="black"/>
<path id="Vector_11" d="M74.9952 117.567C74.987 118.168 74.8218 118.757 74.5146 119.281C74.2222 119.797 73.7908 120.229 73.265 120.531C72.7282 120.838 72.1145 121 71.4891 121C70.8637 121 70.25 120.838 69.7132 120.531C69.1847 120.218 68.752 119.778 68.4588 119.253C68.1576 118.713 68 118.11 68 117.498C68 116.886 68.1576 116.283 68.4588 115.742C68.7547 115.214 69.1927 114.772 69.7277 114.46C70.2612 114.149 70.8763 113.99 71.5011 114.001C72.0262 113.998 72.5447 114.113 73.0151 114.336C73.4757 114.555 73.8796 114.869 74.1974 115.255L73.5774 115.715C73.3443 115.404 73.036 115.151 72.6786 114.979C72.3146 114.8 71.9104 114.709 71.5011 114.713C71.0126 114.706 70.5328 114.837 70.1218 115.09C69.7116 115.339 69.3795 115.69 69.1605 116.105C68.9332 116.537 68.8147 117.014 68.8147 117.498C68.8147 117.981 68.9332 118.458 69.1605 118.89C69.3793 119.308 69.7112 119.662 70.1218 119.915C70.5328 120.168 71.0126 120.299 71.5011 120.292C71.9496 120.298 72.3908 120.183 72.7748 119.961C73.1568 119.746 73.4746 119.441 73.6975 119.074C73.9324 118.703 74.0723 118.284 74.1061 117.852H71.3906V117.208H75L74.9952 117.567Z" fill="black"/>
<path id="Vector_12" d="M80.7229 114.237C81.0558 114.392 81.3324 114.632 81.5191 114.929C81.7276 115.254 81.8316 115.627 81.819 116.004C81.8292 116.365 81.7347 116.723 81.545 117.041C81.3839 117.307 81.1528 117.531 80.8728 117.694C80.6436 117.833 80.381 117.92 80.1075 117.945L82 120.981H81.0434L79.2492 118.002H77.8635V121H77V114H79.5853C79.9798 113.994 80.3701 114.075 80.7229 114.237ZM80.5057 117.079C80.6604 116.948 80.7808 116.786 80.8579 116.607C80.9349 116.427 80.9665 116.234 80.9504 116.042C80.9668 115.85 80.9353 115.659 80.8582 115.48C80.7811 115.302 80.6605 115.143 80.5057 115.014C80.1613 114.776 79.7367 114.657 79.3061 114.678H77.8635V117.42H79.3061C79.7331 117.431 80.1507 117.303 80.485 117.06L80.5057 117.079Z" fill="black"/>
<path id="Vector_13" d="M82.4937 114.75C82.7868 114.224 83.222 113.783 83.7541 113.472C84.2883 113.163 84.9007 113 85.525 113C86.1493 113 86.7618 113.163 87.296 113.472C87.8251 113.781 88.2572 114.221 88.5469 114.746C88.8445 115.286 89 115.887 89 116.498C89 117.108 88.8445 117.71 88.5469 118.25C88.2578 118.773 87.8275 119.213 87.3008 119.523C86.7633 119.835 86.1466 120 85.5179 120C84.8891 120 84.2725 119.835 83.735 119.523C83.2054 119.213 82.772 118.773 82.4793 118.25C82.1683 117.713 82.0035 117.109 82 116.495C82.0033 115.883 82.1735 115.281 82.4937 114.75ZM83.1886 117.883C83.4073 118.299 83.7382 118.652 84.1471 118.905C84.5592 119.15 85.0349 119.28 85.5203 119.28C86.0057 119.28 86.4813 119.15 86.8934 118.905C87.3028 118.653 87.6338 118.3 87.8519 117.883C88.0758 117.452 88.1922 116.977 88.1922 116.495C88.1922 116.014 88.0758 115.539 87.8519 115.107C87.634 114.693 87.3027 114.344 86.8934 114.095C86.4806 113.849 86.0041 113.719 85.5179 113.719C85.0316 113.719 84.5551 113.849 84.1423 114.095C83.7338 114.344 83.4028 114.694 83.1838 115.107C82.9571 115.538 82.839 116.013 82.839 116.495C82.839 116.977 82.9571 117.453 83.1838 117.883H83.1886Z" fill="black"/>
<path id="Vector_14" d="M94.9992 118.285C95.0108 118.79 94.9 119.29 94.677 119.738C94.4686 120.131 94.1585 120.455 93.782 120.673C93.3861 120.888 92.9463 121 92.5 121C92.0537 121 91.6139 120.888 91.218 120.673C90.8405 120.457 90.53 120.132 90.323 119.738C90.1 119.29 89.9892 118.79 90.0008 118.285V114H90.7257V118.252C90.7201 118.625 90.7999 118.993 90.9584 119.327C91.1013 119.624 91.3215 119.874 91.5939 120.047C91.8674 120.206 92.1755 120.29 92.4888 120.29C92.8021 120.29 93.1102 120.206 93.3838 120.047C93.6559 119.875 93.8749 119.625 94.0147 119.327C94.1717 118.993 94.2499 118.624 94.2429 118.252V114H94.9768L94.9992 118.285Z" fill="black"/>
<path id="Vector_15" d="M99.9286 114.214C100.25 114.35 100.524 114.587 100.713 114.891C100.914 115.238 101.014 115.64 100.998 116.046C101.012 116.463 100.913 116.875 100.713 117.235C100.527 117.553 100.251 117.802 99.9241 117.95C99.5626 118.109 99.1737 118.188 98.7816 118.182H97.7344V121H97V114H98.7816C99.1735 113.993 99.5631 114.066 99.9286 114.214ZM99.7745 117.173C99.9308 117.041 100.054 116.871 100.133 116.678C100.212 116.485 100.244 116.275 100.228 116.065C100.245 115.859 100.213 115.652 100.133 115.463C100.054 115.273 99.9308 115.108 99.7745 114.981C99.4143 114.749 98.9955 114.637 98.5731 114.659H97.7299V117.5H98.5731C98.9968 117.53 99.4184 117.415 99.7745 117.173Z" fill="black"/>
</g>
</g>
<defs>
<linearGradient id="paint0_linear_0_117" x1="34.8237" y1="19.3893" x2="98.1124" y2="51.6365" gradientUnits="userSpaceOnUse">
<stop stop-color="#DCC161"/>
<stop offset="0.7" stop-color="#C59E47"/>
<stop offset="1" stop-color="#B28231"/>
</linearGradient>
<linearGradient id="paint1_linear_0_117" x1="-0.014464" y1="93.995" x2="22" y2="93.995" gradientUnits="userSpaceOnUse">
<stop stop-color="#DCC161"/>
<stop offset="0.7" stop-color="#C59E47"/>
<stop offset="1" stop-color="#B28231"/>
</linearGradient>
</defs>
</svg>
