<?xml version="1.0" encoding="utf-8"?>
<!-- Generator: Adobe Illustrator 23.0.1, SVG Export Plug-In . SVG Version: 6.00 Build 0)  -->
<svg version="1.1" id="Слой_1" xmlns="http://www.w3.org/2000/svg" xmlns:xlink="http://www.w3.org/1999/xlink" x="0px" y="0px"
	 viewBox="0 0 40 26" width="40" height="26" style="enable-background:new 0 0 40 26;" xml:space="preserve">
<style type="text/css">
	.st0{fill:#FFFFFF;}
	.st1{fill:#000008;}
	.st2{fill:#7673C0;}
	.st3{fill:#EB001B;}
	.st4{fill:#00A1DF;}
	.st5{fill:none;stroke:#D6DCE5;stroke-width:0.1476;}
</style>
<g>
	<path class="st0" d="M3.6,0.1h32.7c1.9,0,3.5,1.6,3.5,3.5v18.8c0,1.9-1.6,3.5-3.5,3.5H3.6c-1.9,0-3.5-1.6-3.5-3.5V3.6
		C0.1,1.7,1.7,0.1,3.6,0.1z"/>
	<path class="st1" d="M16,20.9v-1.1c0-0.1,0-0.2,0-0.3c0-0.1-0.1-0.2-0.1-0.2c-0.1-0.1-0.1-0.1-0.2-0.1c-0.1,0-0.2,0-0.3,0
		c-0.1,0-0.2,0-0.3,0.1c-0.1,0.1-0.2,0.1-0.2,0.2c-0.1-0.1-0.1-0.2-0.2-0.2c-0.1-0.1-0.2-0.1-0.3-0.1c-0.1,0-0.2,0-0.3,0.1
		c-0.1,0-0.2,0.1-0.2,0.2v-0.2h-0.4v1.7h0.4v-0.9c0-0.1,0-0.1,0-0.2c0-0.1,0-0.1,0.1-0.1c0,0,0.1-0.1,0.1-0.1c0.1,0,0.1,0,0.2,0
		c0.2,0,0.4,0.2,0.4,0.4v0.9h0.4v-0.9c0-0.1,0-0.1,0-0.2c0-0.1,0-0.1,0.1-0.1c0,0,0.1-0.1,0.1-0.1c0.1,0,0.1,0,0.2,0
		c0.2,0,0.4,0.2,0.4,0.4v0.9H16z M18,20v-0.8h-0.4v0.2c-0.1-0.1-0.1-0.1-0.2-0.2c-0.1,0-0.2-0.1-0.3-0.1c-0.2,0-0.4,0.1-0.6,0.3
		c-0.2,0.2-0.2,0.4-0.2,0.6c0,0.2,0.1,0.5,0.2,0.6c0.2,0.2,0.4,0.3,0.6,0.3c0.1,0,0.2,0,0.3-0.1c0.1,0,0.2-0.1,0.2-0.2v0.2H18L18,20
		z M16.7,20c0-0.1,0-0.2,0.1-0.3c0.1-0.1,0.1-0.1,0.2-0.2c0.1,0,0.2,0,0.3,0c0.1,0,0.2,0.1,0.2,0.1c0.1,0.1,0.1,0.2,0.1,0.3
		c0,0.1,0,0.2,0,0.3c0,0.1-0.1,0.2-0.2,0.2c-0.1,0.1-0.2,0.1-0.3,0.1c-0.1,0-0.1,0-0.2,0c-0.1,0-0.1-0.1-0.2-0.1
		c0-0.1-0.1-0.1-0.1-0.2C16.7,20.2,16.7,20.1,16.7,20L16.7,20z M25.6,19.2c0.1,0,0.2,0,0.3,0.1c0.1,0,0.2,0.1,0.3,0.2
		c0.1,0.1,0.1,0.2,0.2,0.3c0.1,0.2,0.1,0.5,0,0.7c0,0.1-0.1,0.2-0.2,0.3c-0.1,0.1-0.2,0.1-0.3,0.2c-0.2,0.1-0.5,0.1-0.7,0
		c-0.1,0-0.2-0.1-0.3-0.2c-0.1-0.1-0.1-0.2-0.2-0.3c-0.1-0.2-0.1-0.5,0-0.7c0-0.1,0.1-0.2,0.2-0.3c0.1-0.1,0.2-0.1,0.3-0.2
		C25.4,19.2,25.5,19.1,25.6,19.2L25.6,19.2z M25.6,19.5c-0.1,0-0.1,0-0.2,0c-0.1,0-0.1,0.1-0.2,0.1c0,0.1-0.1,0.1-0.1,0.2
		c-0.1,0.1-0.1,0.3,0,0.4c0,0.1,0.1,0.1,0.1,0.2c0,0,0.1,0.1,0.2,0.1c0.1,0.1,0.3,0.1,0.4,0c0.1,0,0.1-0.1,0.2-0.1
		c0-0.1,0.1-0.1,0.1-0.2c0.1-0.1,0.1-0.3,0-0.4c0-0.1-0.1-0.1-0.1-0.2c0,0-0.1-0.1-0.2-0.1C25.8,19.5,25.7,19.5,25.6,19.5L25.6,19.5
		z M20,20c0-0.5-0.3-0.9-0.8-0.9c-0.2,0-0.4,0.1-0.6,0.3c-0.2,0.2-0.2,0.4-0.2,0.6c0,0.2,0.1,0.5,0.3,0.6c0.2,0.2,0.4,0.3,0.6,0.2
		c0.2,0,0.5-0.1,0.7-0.2l-0.2-0.3c-0.1,0.1-0.3,0.2-0.5,0.2c-0.1,0-0.2,0-0.3-0.1c-0.1-0.1-0.1-0.2-0.2-0.3H20
		C20,20.1,20,20.1,20,20z M18.7,19.9c0-0.1,0.1-0.2,0.1-0.3c0.1-0.1,0.2-0.1,0.3-0.1c0.1,0,0.1,0,0.2,0c0,0,0.1,0,0.1,0.1
		c0,0,0.1,0.1,0.1,0.1c0,0.1,0,0.1,0,0.2L18.7,19.9z M21.5,19.6c-0.2-0.1-0.3-0.1-0.5-0.1c-0.2,0-0.3,0.1-0.3,0.2s0.1,0.1,0.3,0.2
		l0.2,0c0.4,0.1,0.6,0.2,0.6,0.5c0,0.3-0.3,0.5-0.7,0.5c-0.3,0-0.5-0.1-0.7-0.2l0.2-0.3c0.2,0.1,0.3,0.2,0.5,0.2
		c0.2,0,0.4-0.1,0.4-0.2c0-0.1-0.1-0.1-0.3-0.2l-0.2,0c-0.4-0.1-0.6-0.2-0.6-0.5c0-0.3,0.3-0.5,0.7-0.5c0.2,0,0.5,0.1,0.7,0.2
		L21.5,19.6z M23.2,19.5h-0.6v0.8c0,0.2,0.1,0.3,0.2,0.3c0.1,0,0.2,0,0.3-0.1l0.1,0.3c-0.1,0.1-0.3,0.1-0.4,0.1
		c-0.4,0-0.6-0.2-0.6-0.6v-0.8h-0.3v-0.3h0.3v-0.5h0.4v0.5h0.6V19.5z M24.4,19.1c0.1,0,0.2,0,0.3,0l-0.1,0.4c-0.1,0-0.1,0-0.2,0
		c-0.2,0-0.3,0.2-0.3,0.4v0.9h-0.4v-1.7H24v0.2c0-0.1,0.1-0.1,0.2-0.2C24.2,19.2,24.3,19.2,24.4,19.1L24.4,19.1z M26.8,20.6
		C26.9,20.6,26.9,20.6,26.8,20.6c0.1,0,0.1,0,0.1,0c0,0,0,0,0,0.1c0,0,0,0,0,0.1c0,0,0,0,0,0.1c0,0,0,0,0,0.1c0,0,0,0-0.1,0
		c0,0,0,0-0.1,0c0,0-0.1,0-0.1,0c0,0,0,0-0.1-0.1c0,0,0,0,0-0.1c0,0,0,0,0-0.1c0,0,0,0,0-0.1C26.7,20.7,26.8,20.6,26.8,20.6
		C26.8,20.6,26.8,20.6,26.8,20.6L26.8,20.6z M26.8,20.9C26.9,20.9,26.9,20.9,26.8,20.9C26.9,20.9,26.9,20.9,26.8,20.9
		c0.1-0.1,0.1-0.1,0.1-0.1c0,0,0,0,0-0.1c0,0,0,0,0-0.1c0,0,0,0,0,0c0,0,0,0,0,0c0,0,0,0,0,0c0,0,0,0,0,0c0,0,0,0.1,0,0.1
		C26.7,20.8,26.7,20.9,26.8,20.9C26.8,20.9,26.8,20.9,26.8,20.9C26.8,20.9,26.8,20.9,26.8,20.9L26.8,20.9z M26.9,20.7
		C26.9,20.7,26.9,20.7,26.9,20.7C26.9,20.7,26.9,20.7,26.9,20.7C26.9,20.7,26.9,20.8,26.9,20.7C26.9,20.8,26.9,20.8,26.9,20.7
		C26.9,20.8,26.9,20.8,26.9,20.7C26.9,20.8,26.9,20.8,26.9,20.7l0.1,0.2h0L26.9,20.7L26.9,20.7l0,0.2h0L26.9,20.7L26.9,20.7z
		 M26.8,20.7L26.8,20.7L26.8,20.7C26.9,20.8,26.9,20.8,26.8,20.7C26.9,20.8,26.9,20.8,26.8,20.7C26.9,20.8,26.9,20.8,26.8,20.7
		C26.9,20.8,26.9,20.8,26.8,20.7C26.9,20.8,26.9,20.8,26.8,20.7C26.9,20.7,26.9,20.7,26.8,20.7L26.8,20.7z"/>
	<path class="st2" d="M22.6,6.4h-5.4v9.9h5.4V6.4z"/>
	<path class="st3" d="M17.6,11.4c0-1,0.2-1.9,0.6-2.8c0.4-0.9,1-1.6,1.7-2.2c-0.9-0.7-2-1.2-3.1-1.3c-1.1-0.1-2.3,0.1-3.3,0.6
		C12.4,6.2,11.6,7,11,8c-0.6,1-0.9,2.2-0.9,3.4c0,1.2,0.3,2.3,0.9,3.4c0.6,1,1.5,1.8,2.5,2.3s2.2,0.7,3.3,0.6
		c1.1-0.1,2.2-0.6,3.1-1.3c-0.7-0.6-1.3-1.3-1.7-2.2C17.8,13.3,17.6,12.3,17.6,11.4z"/>
	<path class="st4" d="M29.3,15.3v-0.2h0.1v0h-0.2v0h0.1L29.3,15.3L29.3,15.3z M29.7,15.3V15h-0.1l-0.1,0.2L29.5,15h-0.1v0.2h0v-0.2
		l0.1,0.2h0l0.1-0.2L29.7,15.3L29.7,15.3z"/>
	<path class="st4" d="M29.9,11.4c0,1.2-0.3,2.3-0.9,3.4c-0.6,1-1.5,1.8-2.5,2.3c-1,0.5-2.2,0.7-3.3,0.6c-1.1-0.1-2.2-0.6-3.1-1.3
		c0.7-0.6,1.3-1.3,1.7-2.2c0.4-0.9,0.6-1.8,0.6-2.8c0-1-0.2-1.9-0.6-2.8c-0.4-0.9-1-1.6-1.7-2.2c0.9-0.7,2-1.2,3.1-1.3
		c1.1-0.1,2.3,0.1,3.3,0.6C27.5,6.2,28.4,7,29,8C29.6,9,29.9,10.2,29.9,11.4L29.9,11.4z"/>
	<path class="st5" d="M3.6,0h32.7c2,0,3.6,1.6,3.6,3.6v18.8c0,2-1.6,3.6-3.6,3.6H3.6c-2,0-3.6-1.6-3.6-3.6V3.6C0,1.6,1.6,0,3.6,0z"
		/>
</g>
</svg>
