<?xml version="1.0" encoding="utf-8"?>
<!-- Generator: Adobe Illustrator 23.0.1, SVG Export Plug-In . SVG Version: 6.00 Build 0)  -->
<svg version="1.1" id="Слой_1" xmlns="http://www.w3.org/2000/svg" xmlns:xlink="http://www.w3.org/1999/xlink" x="0px" y="0px" width="40" height="26"
	 viewBox="0 0 40 26" style="enable-background:new 0 0 40 26;" xml:space="preserve">
<style type="text/css">
	.st0{fill:#FFFFFF;}
	.st1{fill:#FF5F00;}
	.st2{fill:#EB001B;}
	.st3{fill:#F79E1B;}
	.st4{fill:none;stroke:#D6DCE5;stroke-width:0.1476;}
</style>
<g>
	<path class="st0" d="M3.6,0.1h32.7c1.9,0,3.5,1.6,3.5,3.5v18.8c0,1.9-1.6,3.5-3.5,3.5H3.6c-1.9,0-3.5-1.6-3.5-3.5V3.6
		C0.1,1.7,1.7,0.1,3.6,0.1z"/>
	<path class="st1" d="M22.9,7.5H17v10.9h5.9V7.5z"/>
	<path class="st2" d="M17.4,13c0-1.1,0.2-2.1,0.7-3C18.5,9,19.2,8.2,20,7.5c-1-0.8-2.2-1.3-3.5-1.4c-1.3-0.1-2.5,0.1-3.7,0.7
		c-1.1,0.6-2.1,1.5-2.8,2.6S9,11.7,9,13s0.4,2.6,1,3.7s1.6,2,2.8,2.6c1.1,0.6,2.4,0.8,3.7,0.7c1.3-0.1,2.5-0.6,3.5-1.4
		c-0.8-0.7-1.5-1.5-1.9-2.4C17.6,15.1,17.4,14.1,17.4,13z"/>
	<path class="st3" d="M30.9,13c0,1.3-0.4,2.6-1,3.7c-0.7,1.1-1.6,2-2.8,2.6c-1.1,0.6-2.4,0.8-3.7,0.7c-1.3-0.1-2.5-0.6-3.5-1.4
		c0.8-0.7,1.5-1.5,1.9-2.4c0.4-0.9,0.7-2,0.7-3s-0.2-2.1-0.7-3C21.4,9,20.8,8.2,20,7.5c1-0.8,2.2-1.3,3.5-1.4
		c1.3-0.1,2.5,0.1,3.7,0.7c1.1,0.6,2.1,1.5,2.8,2.6C30.5,10.4,30.9,11.7,30.9,13z"/>
	<path class="st3" d="M30.3,17.3v-0.2h0.1v0h-0.2v0h0.1L30.3,17.3L30.3,17.3z M30.7,17.3V17h-0.1l-0.1,0.2L30.5,17h-0.1v0.3h0v-0.2
		l0.1,0.2h0.1l0.1-0.2L30.7,17.3L30.7,17.3z"/>
	<path class="st4" d="M3.6,0h32.7c2,0,3.6,1.6,3.6,3.6v18.8c0,2-1.6,3.6-3.6,3.6H3.6c-2,0-3.6-1.6-3.6-3.6V3.6C0,1.6,1.6,0,3.6,0z"
		/>
</g>
</svg>
