<svg width="68" height="82" viewBox="0 0 68 82" fill="none" xmlns="http://www.w3.org/2000/svg">
<g clip-path="url(#clip0_283_435)">
<path fill-rule="evenodd" clip-rule="evenodd" d="M30.6744 0.29632C25.0539 1.10367 21.1487 2.33847 17.3023 4.52433C15.7812 5.38882 13.5826 6.8585 13.3474 7.1684C13.2875 7.24735 12.7971 7.64819 12.2577 8.05949C11.7182 8.47058 10.6885 9.43412 9.96924 10.2005C9.25 10.9668 8.44072 11.8066 8.17112 12.0668C7.90151 12.327 7.68073 12.6153 7.68073 12.7078C7.68073 12.8002 7.45995 13.0907 7.19035 13.3535C6.38263 14.1404 5.16669 15.9684 4.50042 17.3966C4.30471 17.8164 4.06082 18.2127 3.9586 18.2772C3.51159 18.5592 1.97832 22.3188 1.37809 24.6047C0.314284 28.6563 -0.000869992 30.924 1.80258e-06 34.5163C0.00109155 38.0536 0.179809 39.5388 1.05029 43.2397C1.72506 46.1092 2.66987 48.6909 3.64388 50.3274C4.03663 50.9872 4.42567 51.7476 4.50827 52.0176C4.59109 52.2876 4.75521 52.5083 4.87312 52.5083C4.99103 52.5083 5.23186 52.854 5.4084 53.2766C5.58494 53.6993 5.89856 54.2162 6.10562 54.4253C6.31267 54.6342 6.65158 55.0669 6.85863 55.3866C7.58309 56.5043 12.3797 61.4498 12.7395 61.4498C12.8248 61.4498 13.0699 61.6271 13.2844 61.8439C15.5772 64.1608 22.0285 67.1427 27.1549 68.2549C30.1591 68.907 37.0552 68.9613 40.0383 68.3568C54.266 65.4733 65.0042 54.4383 67.4342 40.2046C67.8182 37.955 67.8671 36.9793 67.7677 33.5349C67.6868 30.7321 67.5214 28.9004 67.2258 27.5349C64.2881 13.9709 53.6472 3.44547 40.2128 0.816016C37.9626 0.375703 32.278 0.0658042 30.6744 0.29632ZM39.9585 1.68814C50.04 3.64371 58.7758 10.2133 63.3115 19.2503C65.9212 24.4502 66.9591 28.8308 66.9614 34.6583C66.9654 43.6482 63.5811 51.7812 57.1695 58.1905C55.7831 59.5767 53.8508 61.2683 52.8757 61.9499C49.1701 64.54 44.4166 66.5558 39.8282 67.4827C36.8656 68.0811 30.3631 68.0305 27.4051 67.386C21.0822 66.0082 15.5916 63.1829 11.6197 59.2637C9.91518 57.5816 7.68073 55.1039 7.68073 54.8959C7.68073 54.7746 7.54255 54.6224 7.37386 54.5577C7.20495 54.4929 6.94777 54.1525 6.8024 53.8011C6.65703 53.45 6.45913 53.1625 6.36236 53.1625C6.26581 53.1625 5.92537 52.6473 5.60608 52.0176C4.67979 50.1913 4.22973 49.362 4.03772 49.128C3.7971 48.8347 2.77732 46.3786 2.23419 44.7841C1.51867 42.684 0.924321 38.0089 0.924321 34.4801C0.924321 30.823 1.49012 26.6805 2.35101 24.0336C2.90046 22.3441 4.54576 18.7042 4.85808 18.487C4.94439 18.4271 5.22881 17.9213 5.49013 17.363C5.75145 16.805 6.15531 16.1762 6.38721 15.9662C6.6191 15.7561 6.80894 15.4875 6.80894 15.3691C6.80894 14.9115 11.0156 10.2059 12.6526 8.83238C17.944 4.39196 23.5559 2.07568 31.2192 1.1691C32.8436 0.976962 37.8137 1.27225 39.9585 1.68814ZM32.5269 10.791C25.9899 11.175 20.1701 14.0494 15.9743 18.9657C15.1242 19.962 14.0904 21.4148 13.677 22.1945C13.2635 22.9742 12.6417 24.1518 12.2949 24.8115C11.4722 26.3772 11.0625 27.75 10.7004 30.1546C10.1316 33.9355 10.515 40.1337 11.4889 42.8958C11.6653 43.3956 12.3664 44.8551 13.0475 46.1392C16.2712 52.2174 21.4727 56.2694 28.3102 58.0289C30.0237 58.4699 30.1827 58.4786 30.4274 58.1447C30.573 57.946 30.8132 56.4739 30.9609 54.8735C31.109 53.2727 31.399 51.1289 31.6059 50.1093L31.9821 48.2556L35.2513 48.1342C38.2524 48.0227 38.6247 47.9628 39.7918 47.4012C40.491 47.0647 41.6984 46.1945 42.475 45.4676C43.6024 44.4124 44.0786 43.7469 44.8375 42.1663C45.8867 39.9813 46.233 38.5507 46.9278 33.5349C47.2073 31.5187 47.612 29.5826 47.9308 28.737C48.7503 26.5649 48.7447 26.6201 48.1852 26.3135C47.335 25.8476 42.5567 25.7924 40.2641 26.222C37.9575 26.6543 35.1728 27.6604 33.1572 28.7893C28.3563 31.4786 25.9729 36.3586 27.1854 41.0168C27.6315 42.7307 28.3384 44.0551 29.8145 45.9429L31.0684 47.5464L30.6853 49.9443C30.4747 51.263 30.1898 53.356 30.0523 54.5952C29.915 55.8343 29.6914 56.9597 29.5554 57.0957C29.0132 57.6379 24.3087 55.893 21.6177 54.1516C18.5512 52.167 15.1691 48.4251 13.7731 45.4724C13.4194 44.7242 13.1297 43.9894 13.1297 43.8394C13.1295 43.6896 13.0438 43.5668 12.939 43.5668C12.5375 43.5668 11.4094 39.5091 11.178 37.2319C10.9593 35.0809 11.1093 31.9078 11.516 30.0829C11.8185 28.7259 12.7709 25.9019 12.9261 25.9019C13.0189 25.9019 13.1637 25.5829 13.2481 25.1931C13.7942 22.6646 17.1293 18.5402 20.6487 16.0408C27.8835 10.9024 36.3345 10.2594 44.2962 14.2413C49.4916 16.8396 53.4393 21.366 55.4174 26.9923C56.0037 28.6602 56.3778 29.1658 56.7499 28.7935C57.266 28.2771 55.3516 23.7812 53.4239 20.9823C52.156 19.1417 48.8391 15.8502 47.0205 14.6278C42.8716 11.8393 37.7516 10.484 32.5269 10.791ZM30.4296 19.4213C25.3749 24.7779 22.5213 28.9087 21.4983 32.3498C21.0171 33.9684 21.0201 36.9887 21.5053 39.0714C22.08 41.5389 24.4153 45.4182 25.0792 45.0077C25.4776 44.761 25.3804 44.112 24.8762 43.6556C24.6243 43.4275 24.0402 42.6024 23.5784 41.8226C20.9819 37.438 21.6876 31.8855 25.4846 26.8279C27.7948 23.7507 31.8796 19.1413 32.2965 19.1413C32.8745 19.1413 33.5583 19.7545 35.6881 22.1834C37.5092 24.26 38.0049 24.639 38.2918 24.1745C38.6223 23.6395 33.1888 17.8328 32.3578 17.8328C32.1072 17.8328 31.3048 18.4938 30.4296 19.4213ZM44.9184 26.9682C45.2468 27.1764 45.1945 27.2216 42.8069 28.787C38.32 31.7291 34.5706 36.9774 32.4036 43.3487C31.9753 44.6082 31.5252 45.7367 31.4036 45.8567C31.068 46.1877 29.7594 44.5839 28.893 42.7795C25.9213 36.5905 29.3215 30.7347 37.5053 27.948C40.1917 27.0333 44.1881 26.5051 44.9184 26.9682ZM46.8531 28.4644C46.7939 28.7941 46.5929 29.8492 46.4063 30.8088C46.2199 31.7684 45.9562 33.4859 45.8202 34.6253C45.0574 41.0194 43.1865 44.5454 39.6218 46.3084C38.2115 47.0058 37.7908 47.1068 35.8792 47.2066C33.3843 47.3371 32.5269 47.115 32.5269 46.3391C32.5269 44.972 34.9095 39.2638 36.5561 36.6856C38.5423 33.5761 41.2219 30.8819 44.1872 29.0131C46.2276 27.7271 47.0149 27.5653 46.8531 28.4644ZM52.7235 34.3346C52.6436 34.4145 52.5782 34.6107 52.5782 34.7708C52.5782 34.9873 52.9984 35.0615 54.2272 35.0615C55.1341 35.0615 56.0784 35.1699 56.3255 35.3022C56.7409 35.5247 56.7641 35.6699 56.6292 37.2105C56.3557 40.3298 55.0107 44.1412 53.0925 47.2315C51.7813 49.3439 48.6013 52.5772 46.5105 53.9235C44.686 55.0985 42.3651 56.207 40.5365 56.7771C39.6137 57.0648 39.2833 57.2724 39.2833 57.5642C39.2833 58.0725 39.7704 58.0699 41.2651 57.553C49.4685 54.7169 55.3542 48.1662 57.1632 39.8593C57.3852 38.8398 57.6339 37.2552 57.7159 36.3381C57.8538 34.7961 57.8311 34.6526 57.4153 34.4299C56.9343 34.1724 52.9663 34.0917 52.7235 34.3346ZM20.0311 75.3527C19.9767 75.4428 20.2448 76.8902 20.6267 78.5695L21.3209 81.6226L22.2016 81.6879L23.0821 81.7533L23.7725 78.7047C24.1522 77.028 24.4628 75.5449 24.4628 75.4088C24.4628 75.2615 24.1797 75.1891 23.7632 75.23C23.0671 75.298 23.0619 75.3073 22.6741 77.2422C22.4599 78.3112 22.2511 79.2196 22.2101 79.2606C22.1691 79.3016 22.0092 78.6231 21.8546 77.7529C21.4595 75.5272 21.3027 75.1891 20.667 75.1891C20.3715 75.1891 20.0851 75.2627 20.0311 75.3527ZM25.7705 78.4604V81.7317H27.6375H29.5046L29.4355 81.132C29.3712 80.5726 29.2897 80.5279 28.2224 80.4664L27.0782 80.4003V79.6485V78.8966H28.168C29.1851 78.8966 29.2577 78.8602 29.2577 78.3514C29.2577 77.8426 29.1851 77.8062 28.168 77.8062C27.1024 77.8062 27.0782 77.7916 27.0782 77.1519C27.0782 76.5123 27.1024 76.4976 28.168 76.4976C29.2335 76.4976 29.2577 76.4831 29.2577 75.8434V75.1891H27.5141H25.7705V78.4604ZM31.5039 75.7154C30.906 76.2298 30.8923 76.2935 30.8923 78.5276C30.8923 81.5235 31.044 81.7219 33.3156 81.6955L34.9244 81.6767V79.9595V78.2423H33.8346C32.8174 78.2423 32.7449 78.2788 32.7449 78.7875C32.7449 79.1873 32.861 79.3327 33.1808 79.3327C33.4205 79.3327 33.6167 79.4719 33.6167 79.642C33.6167 80.7144 32.6651 81.0332 32.3035 80.0819C32.1867 79.7742 32.091 79.0444 32.091 78.4604C32.091 76.5212 32.8697 75.576 33.4384 76.8248C33.728 77.461 34.9244 77.6278 34.9244 77.032C34.9244 75.4062 32.8091 74.592 31.5039 75.7154ZM37.6596 75.4485C37.6075 75.6057 37.2605 76.912 36.8883 78.3514C36.5163 79.7907 36.1607 81.1402 36.0982 81.35C36.0054 81.6623 36.1231 81.7317 36.7448 81.7317C37.4125 81.7317 37.5225 81.6519 37.6487 81.0774C37.7744 80.505 37.886 80.4232 38.5432 80.4232C39.2033 80.4232 39.3101 80.5024 39.425 81.0774C39.5392 81.6493 39.6484 81.7317 40.2913 81.7317C40.6958 81.7317 41.0226 81.6582 41.0171 81.5681C41.0118 81.4781 40.6394 80.0306 40.1897 78.3514L39.372 75.2982L38.5632 75.2304C38.0395 75.1865 37.7208 75.2635 37.6596 75.4485ZM42.2723 75.3242C42.1866 75.4098 42.1167 76.8865 42.1167 78.6059V81.7317H42.7705H43.4244L43.4389 79.7144L43.4536 77.6971L44.1752 79.6599C44.8916 81.6074 44.9034 81.6231 45.6923 81.6907L46.4873 81.7587L46.427 78.5285L46.3667 75.2982H45.8218C45.2924 75.2982 45.2739 75.3503 45.168 77.1331L45.059 78.9679L44.404 77.1331C43.7924 75.4197 43.7055 75.2938 43.0885 75.2335C42.7252 75.1977 42.3579 75.2387 42.2723 75.3242ZM38.9252 78.5149C39.0558 79.0425 39.0115 79.1147 38.556 79.1147C38.0482 79.1147 38.0428 79.0929 38.2642 77.9715C38.5026 76.7653 38.4891 76.7544 38.9252 78.5149Z" fill="#2F2F2F"/>
</g>
<defs>
<clipPath id="clip0_283_435">
<rect width="68" height="82" fill="white"/>
</clipPath>
</defs>
</svg>
