<?xml version="1.0" encoding="utf-8"?>
<!-- Generator: Adobe Illustrator 23.0.1, SVG Export Plug-In . SVG Version: 6.00 Build 0)  -->
<svg version="1.1" id="Слой_1" xmlns="http://www.w3.org/2000/svg" xmlns:xlink="http://www.w3.org/1999/xlink" x="0px" y="0px"
	 viewBox="0 0 40 26" width="40" height="26" style="enable-background:new 0 0 40 26;" xml:space="preserve">
<style type="text/css">
	.st0{fill:#1434CB;}
	.st1{fill:#FFFFFF;}
	.st2{fill:none;stroke:#D6DCE5;stroke-width:0.1476;}
</style>
<g>
	<path class="st0" d="M3.6,0.1h32.8c1.9,0,3.5,1.6,3.5,3.5v18.8c0,1.9-1.6,3.5-3.5,3.5H3.6c-1.9,0-3.5-1.6-3.5-3.5V3.6
		C0.1,1.7,1.7,0.1,3.6,0.1z"/>
	<path class="st1" d="M19.9,9.2L18,17.8h-2.3l1.9-8.7H19.9z M29.3,14.8l1.2-3.3l0.7,3.3H29.3z M31.9,17.8h2.1l-1.8-8.7h-1.9
		c-0.4,0-0.8,0.2-1,0.6l-3.4,8h2.4l0.5-1.3h2.9L31.9,17.8z M26,15c0-2.3-3.2-2.4-3.2-3.4c0-0.3,0.3-0.6,1-0.7c0.3,0,1.2-0.1,2.2,0.4
		l0.4-1.8C25.9,9.2,25.2,9,24.3,9c-2.2,0-3.8,1.2-3.8,2.9c0,1.2,1.1,1.9,2,2.4c0.9,0.4,1.2,0.7,1.2,1.1c0,0.6-0.7,0.8-1.3,0.8
		c-1.1,0-1.8-0.3-2.3-0.5l-0.4,1.9c0.5,0.2,1.5,0.4,2.5,0.5C24.4,18,26,16.8,26,15z M16.6,9.2L13,17.8h-2.4l-1.8-6.9
		c-0.1-0.4-0.2-0.6-0.5-0.8C7.7,9.9,6.8,9.6,6.1,9.4l0.1-0.3h3.8c0.5,0,0.9,0.3,1,0.9l0.9,5l2.3-5.9H16.6z"/>
	<path class="st2" d="M3.6,0h32.8c2,0,3.6,1.6,3.6,3.6v18.8c0,2-1.6,3.6-3.6,3.6H3.6c-2,0-3.6-1.6-3.6-3.6V3.6C0,1.6,1.6,0,3.6,0z"
		/>
</g>
</svg>
