<?xml version="1.0" encoding="utf-8"?>
<!-- Generator: Adobe Illustrator 23.0.1, SVG Export Plug-In . SVG Version: 6.00 Build 0)  -->
<svg version="1.1" id="Слой_1" xmlns="http://www.w3.org/2000/svg" xmlns:xlink="http://www.w3.org/1999/xlink" x="0px" y="0px"
	 viewBox="0 0 29 29" style="enable-background:new 0 0 29 29;" xml:space="preserve">
<style type="text/css">
	.st0{fill:#BFA75F;}
</style>
<path class="st0" d="M14.9,28.7C14.8,28.7,14.8,28.7,14.9,28.7c-7.7,0-14-6.3-14-14c0-7.7,6.3-14,14-14c0,0,0,0,0,0
	c3.7,0,7.3,1.5,9.9,4.1c2.6,2.6,4.1,6.2,4.1,9.9C28.8,22.4,22.6,28.7,14.9,28.7z M14.9,2.2C8,2.2,2.4,7.8,2.4,14.7
	c0,6.9,5.6,12.5,12.5,12.5c0,0,0,0,0,0c6.9,0,12.5-5.6,12.5-12.5c0-3.3-1.3-6.5-3.7-8.8S18.2,2.2,14.9,2.2
	C14.9,2.2,14.9,2.2,14.9,2.2z"/>
<rect x="8.6" y="14.2" transform="matrix(1.301658e-03 -1 1 1.301658e-03 -9.732496e-02 29.7663)" class="st0" width="12.5" height="1.5"/>
<rect x="13.9" y="8.4" transform="matrix(1.171874e-03 -1 1 1.171874e-03 -9.583876e-02 29.2686)" class="st0" width="1.5" height="12.5"/>
</svg>
