<?xml version="1.0" encoding="utf-8"?>
<!-- Generator: Adobe Illustrator 23.0.1, SVG Export Plug-In . SVG Version: 6.00 Build 0)  -->
<svg version="1.1" id="Слой_1" xmlns="http://www.w3.org/2000/svg" xmlns:xlink="http://www.w3.org/1999/xlink" x="0px" y="0px"
	 viewBox="0 0 20 18" style="enable-background:new 0 0 20 18;" xml:space="preserve">
<style type="text/css">
	.st0{fill-rule:evenodd;clip-rule:evenodd;}
</style>
<path class="st0" d="M19.5,14.6h-3.9c-0.1,0.7-0.5,1.3-1.1,1.8c-0.6,0.5-1.3,0.7-2,0.7s-1.4-0.2-2-0.7C10,16,9.6,15.3,9.4,14.6H0.5
	v-1.2h8.9c0.1-0.7,0.5-1.3,1.1-1.8c0.6-0.5,1.3-0.7,2-0.7s1.4,0.2,2,0.7c0.6,0.5,0.9,1.1,1.1,1.8h3.9V14.6z M10.6,14
	c0,0.3,0,0.5,0.1,0.7c0.1,0.2,0.2,0.4,0.4,0.6s0.4,0.3,0.6,0.4c0.2,0.1,0.5,0.1,0.7,0.1c0.3,0,0.5-0.1,0.7-0.1
	c0.2-0.1,0.4-0.2,0.6-0.4s0.3-0.4,0.4-0.6c0.1-0.2,0.1-0.5,0.1-0.7c0-0.5-0.2-1-0.6-1.3c-0.4-0.3-0.8-0.5-1.3-0.5
	c-0.5,0-1,0.2-1.3,0.5C10.8,13,10.6,13.5,10.6,14z"/>
<path class="st0" d="M0.5,4.6V3.4h3.9C4.6,2.7,5,2,5.5,1.6s1.3-0.7,2-0.7s1.4,0.2,2,0.7C10,2,10.4,2.7,10.6,3.4h8.9v1.2h-8.9
	C10.4,5.3,10,6,9.5,6.4c-0.6,0.5-1.3,0.7-2,0.7s-1.4-0.2-2-0.7C5,6,4.6,5.3,4.4,4.6H0.5z M5.6,4c0,0.3,0,0.5,0.1,0.7
	C5.8,5,6,5.2,6.2,5.4c0.2,0.2,0.4,0.3,0.6,0.4C7,5.9,7.2,5.9,7.5,5.9c0.3,0,0.5-0.1,0.7-0.1c0.2-0.1,0.4-0.2,0.6-0.4
	C9,5.2,9.2,5,9.2,4.7C9.3,4.5,9.4,4.3,9.4,4c0-0.5-0.2-1-0.6-1.3C8.5,2.4,8,2.2,7.5,2.2s-1,0.2-1.3,0.5C5.8,3,5.6,3.5,5.6,4z"/>
</svg>
