<svg width="30" height="9" viewBox="0 0 30 9" fill="none" xmlns="http://www.w3.org/2000/svg">
<path d="M4.868 1.596H1.196V4.368H4.556V5.352H1.196V9H0.152V0.599999H4.868V1.596ZM12.5486 9L10.6286 5.712H8.70862V9H7.66462V0.599999H10.8446C11.6366 0.599999 12.2886 0.843999 12.8006 1.332C13.3206 1.812 13.5806 2.424 13.5806 3.168C13.5806 3.752 13.4126 4.264 13.0766 4.704C12.7406 5.136 12.2926 5.432 11.7326 5.592L13.7366 9H12.5486ZM8.70862 1.596V4.716H10.7966C11.3006 4.716 11.7126 4.572 12.0326 4.284C12.3526 3.988 12.5126 3.612 12.5126 3.156C12.5126 2.7 12.3526 2.328 12.0326 2.04C11.7126 1.744 11.3006 1.596 10.7966 1.596H8.70862ZM17.6627 7.992H21.5027V9H16.6187V0.599999H21.3707V1.596H17.6627V4.2H21.0587V5.172H17.6627V7.992ZM25.5268 7.992H29.3668V9H24.4828V0.599999H29.2348V1.596H25.5268V4.2H28.9228V5.172H25.5268V7.992Z" fill="black"/>
</svg>
