<svg width="28" height="28" viewBox="0 0 28 28" fill="none" xmlns="http://www.w3.org/2000/svg">
<path d="M23.3332 13.9998V25.6664H4.6665V13.9998" stroke="black" stroke-linecap="round" stroke-linejoin="round"/>
<path d="M25.6668 8.1665H2.3335V13.9998H25.6668V8.1665Z" stroke="black" stroke-linecap="round" stroke-linejoin="round"/>
<path d="M14 25.6665V8.1665" stroke="black" stroke-linecap="round" stroke-linejoin="round"/>
<path d="M14 8.16634H19.25C20.0235 8.16634 20.7654 7.85905 21.3124 7.31207C21.8594 6.76509 22.1667 6.02322 22.1667 5.24967C22.1667 4.47613 21.8594 3.73426 21.3124 3.18728C20.7654 2.6403 20.0235 2.33301 19.25 2.33301C15.1667 2.33301 14 8.16634 14 8.16634Z" stroke="black" stroke-linecap="round" stroke-linejoin="round"/>
<path d="M14.0002 8.16634H8.75016C7.97661 8.16634 7.23475 7.85905 6.68777 7.31207C6.14079 6.76509 5.8335 6.02322 5.8335 5.24967C5.8335 4.47613 6.14079 3.73426 6.68777 3.18728C7.23475 2.6403 7.97661 2.33301 8.75016 2.33301C12.8335 2.33301 14.0002 8.16634 14.0002 8.16634Z" stroke="black" stroke-linecap="round" stroke-linejoin="round"/>
</svg>
