<?xml version="1.0" encoding="utf-8"?>
<!-- Generator: Adobe Illustrator 23.0.1, SVG Export Plug-In . SVG Version: 6.00 Build 0)  -->
<svg version="1.1" id="Слой_1" xmlns="http://www.w3.org/2000/svg" xmlns:xlink="http://www.w3.org/1999/xlink" x="0px" y="0px"
	 viewBox="0 0 28 28" style="enable-background:new 0 0 28 28;" xml:space="preserve">
<path d="M23.3,26.2H4.7c-0.3,0-0.5-0.2-0.5-0.5V14c0-0.3,0.2-0.5,0.5-0.5s0.5,0.2,0.5,0.5v11.2h17.7V14c0-0.3,0.2-0.5,0.5-0.5
	s0.5,0.2,0.5,0.5v11.7C23.8,25.9,23.6,26.2,23.3,26.2z"/>
<path d="M25.7,14.5H2.3c-0.3,0-0.5-0.2-0.5-0.5V8.2c0-0.3,0.2-0.5,0.5-0.5h23.3c0.3,0,0.5,0.2,0.5,0.5V14
	C26.2,14.3,25.9,14.5,25.7,14.5z M2.8,13.5h22.3V8.7H2.8V13.5z"/>
<path d="M14,26.2c-0.3,0-0.5-0.2-0.5-0.5V8.2c0-0.3,0.2-0.5,0.5-0.5s0.5,0.2,0.5,0.5v17.5C14.5,25.9,14.3,26.2,14,26.2z"/>
<path d="M19.3,8.7H14c-0.1,0-0.3-0.1-0.4-0.2c-0.1-0.1-0.1-0.3-0.1-0.4c0.1-0.3,1.3-6.2,5.7-6.2c0.9,0,1.8,0.4,2.4,1
	c0.6,0.6,1,1.5,1,2.4c0,0.9-0.4,1.8-1,2.4C21,8.3,20.1,8.7,19.3,8.7z M14.6,7.7h4.6c0.6,0,1.3-0.3,1.7-0.7c0.5-0.5,0.7-1.1,0.7-1.7
	c0-0.6-0.3-1.3-0.7-1.7c-0.5-0.5-1.1-0.7-1.7-0.7C16.4,2.8,15.1,6.3,14.6,7.7z"/>
<path d="M14,8.7H8.8c-0.9,0-1.8-0.4-2.4-1c-0.6-0.6-1-1.5-1-2.4c0-0.9,0.4-1.8,1-2.4c0.6-0.6,1.5-1,2.4-1c4.4,0,5.7,6,5.7,6.2
	c0,0.1,0,0.3-0.1,0.4S14.1,8.7,14,8.7z M8.8,2.8C8.1,2.8,7.5,3.1,7,3.5C6.6,4,6.3,4.6,6.3,5.2C6.3,5.9,6.6,6.5,7,7
	c0.5,0.5,1.1,0.7,1.7,0.7h4.6C12.9,6.3,11.6,2.8,8.8,2.8z"/>
</svg>
