<svg width="23" height="24" viewBox="0 0 23 24" fill="none" xmlns="http://www.w3.org/2000/svg">
<path d="M4.92 9.88C3.49067 9.88 2.31733 9.432 1.4 8.536C0.504 7.61867 0.056 6.44533 0.056 5.016C0.056 3.608 0.504 2.456 1.4 1.56C2.31733 0.642665 3.49067 0.183998 4.92 0.183998C5.64533 0.183998 6.30667 0.301332 6.904 0.535999C7.50133 0.770665 8.01333 1.10133 8.44 1.528C8.86667 1.95467 9.19733 2.46667 9.432 3.064C9.688 3.66133 9.816 4.312 9.816 5.016C9.816 6.44533 9.35733 7.61867 8.44 8.536C7.52267 9.432 6.34933 9.88 4.92 9.88ZM3.64 23.128L17.24 0.567999H18.936L5.336 23.128H3.64ZM4.92 8.6C5.60267 8.6 6.21067 8.45067 6.744 8.152C7.29867 7.832 7.72533 7.40533 8.024 6.872C8.32267 6.31733 8.472 5.69867 8.472 5.016C8.472 4.504 8.38667 4.03467 8.216 3.608C8.04533 3.16 7.8 2.78667 7.48 2.488C7.18133 2.168 6.808 1.92267 6.36 1.752C5.912 1.58133 5.432 1.496 4.92 1.496C3.896 1.496 3.05333 1.82667 2.392 2.488C1.73067 3.14933 1.4 3.992 1.4 5.016C1.4 6.06133 1.73067 6.92533 2.392 7.608C3.05333 8.26933 3.896 8.6 4.92 8.6ZM21.592 21.848C20.696 22.744 19.5333 23.192 18.104 23.192C16.696 23.192 15.5333 22.744 14.616 21.848C13.72 20.952 13.272 19.8 13.272 18.392C13.272 17.4747 13.4747 16.6533 13.88 15.928C14.2853 15.1813 14.8507 14.6053 15.576 14.2C16.3227 13.7947 17.1653 13.592 18.104 13.592C19.5333 13.592 20.696 14.04 21.592 14.936C22.5093 15.832 22.968 16.984 22.968 18.392C22.968 19.8 22.5093 20.952 21.592 21.848ZM15.576 20.92C16.2373 21.56 17.08 21.88 18.104 21.88C19.128 21.88 19.9707 21.56 20.632 20.92C21.2933 20.2587 21.624 19.416 21.624 18.392C21.624 17.368 21.2933 16.536 20.632 15.896C19.9707 15.2347 19.128 14.904 18.104 14.904C17.08 14.904 16.2373 15.2347 15.576 15.896C14.936 16.536 14.616 17.368 14.616 18.392C14.616 19.416 14.936 20.2587 15.576 20.92Z" fill="black"/>
</svg>
