<svg width="48" height="68" viewBox="0 0 48 68" fill="none" xmlns="http://www.w3.org/2000/svg">
<path d="M0.643008 35.842H9.14156V0.310845H24.2401C32.1962 0.310845 36.5358 1.12454 40.9659 4.28889C44.944 7.18201 47.7467 13.1491 47.7467 19.297C47.7467 25.4449 44.944 31.4119 40.9659 34.3051C36.6262 37.6502 31.8345 38.2831 24.2401 38.2831H11.8539V47.957H34.5468V50.3981H11.8539V67.2144H9.14156V50.3981H0.643008V47.957H9.14156V38.2831H0.643008V35.842ZM11.8539 2.75191V35.842H24.3305C31.8345 35.842 35.7221 34.9379 39.5194 32.1352C42.7741 29.6941 45.0344 24.4504 45.0344 19.3874C45.0344 14.0532 42.7741 8.89981 39.5194 6.45873C35.7221 3.65602 31.8345 2.75191 24.3305 2.75191H11.8539Z" fill="black"/>
</svg>
