<svg width="26" height="24" viewBox="0 0 26 24" fill="none" xmlns="http://www.w3.org/2000/svg">
<path d="M12.4921 3.48756L13.2808 4.32168L14.0694 3.48753C14.7185 2.80098 16.2079 1.58317 17.9782 1.07256C19.6623 0.586804 21.6073 0.723716 23.4877 2.71235C25.3786 4.71197 25.5265 6.81585 25.0535 8.64965C24.5637 10.5488 23.4012 12.1336 22.7545 12.8173L17.0736 18.8256L13.8897 22.1931L13.2811 22.8367L12.6727 22.1931L9.48907 18.8256L3.80851 12.8173C3.16184 12.1336 1.99921 10.5486 1.50919 8.64932C1.03601 6.8153 1.18366 4.71141 3.07419 2.71204C4.95434 0.723649 6.89923 0.586792 8.58334 1.0726C10.3536 1.58326 11.843 2.80107 12.4921 3.48756Z" stroke="black" stroke-width="1.25"/>
</svg>
