<svg width="23" height="23" viewBox="0 0 23 23" fill="none" xmlns="http://www.w3.org/2000/svg">
<path d="M0.942383 22.334L2.4973 16.6876C1.53598 15.0303 1.03169 13.1534 1.03694 11.2346C1.03694 5.22229 5.95384 0.333984 11.9897 0.333984C14.9209 0.333984 17.6735 1.46849 19.738 3.52838C21.8077 5.58826 22.9476 8.32781 22.9424 11.2399C22.9424 17.2522 18.0255 22.1405 11.9844 22.1405H11.9791C10.1458 22.1405 8.344 21.6805 6.74181 20.8126L0.942383 22.334ZM7.02022 18.8416L7.35116 19.0403C8.74849 19.8663 10.3507 20.3002 11.9844 20.3055H11.9897C17.0064 20.3055 21.0933 16.2432 21.0933 11.2451C21.0933 8.82448 20.1477 6.55024 18.43 4.83541C16.7122 3.12058 14.4218 2.17952 11.9897 2.17952C6.97294 2.17429 2.88603 6.23655 2.88603 11.2346C2.88603 12.9443 3.36406 14.612 4.2781 16.055L4.49348 16.4L3.57419 19.7408L7.02022 18.8416Z" fill="#46A440"/>
<path d="M0.942383 22.334L2.4973 16.6876C1.53598 15.0303 1.03169 13.1534 1.03694 11.2346C1.03694 5.22229 5.95384 0.333984 11.9897 0.333984C14.9209 0.333984 17.6735 1.46849 19.738 3.52838C21.8077 5.58826 22.9476 8.32781 22.9424 11.2399C22.9424 17.2522 18.0255 22.1405 11.9844 22.1405H11.9791C10.1458 22.1405 8.344 21.6805 6.74181 20.8126L0.942383 22.334ZM7.02022 18.8416L7.35116 19.0403C8.74849 19.8663 10.3507 20.3002 11.9844 20.3055H11.9897C17.0064 20.3055 21.0933 16.2432 21.0933 11.2451C21.0933 8.82448 20.1477 6.55024 18.43 4.83541C16.7122 3.12058 14.4218 2.17952 11.9897 2.17952C6.97294 2.17429 2.88603 6.23655 2.88603 11.2346C2.88603 12.9443 3.36406 14.612 4.2781 16.055L4.49348 16.4L3.57419 19.7408L7.02022 18.8416Z" fill="#46A440"/>
<path fill-rule="evenodd" clip-rule="evenodd" d="M9.25439 6.6755C9.04952 6.22065 8.83414 6.21019 8.63977 6.20497C8.48218 6.19974 8.29832 6.19974 8.11447 6.19974C7.93061 6.19974 7.63643 6.2677 7.38429 6.53957C7.13214 6.81143 6.42822 7.47017 6.42822 8.8138C6.42822 10.1522 7.41055 11.4488 7.54713 11.6318C7.68371 11.8147 9.4435 14.6536 12.2224 15.7463C14.5337 16.656 15.0065 16.473 15.5056 16.426C16.0046 16.3789 17.1235 15.7672 17.3547 15.1294C17.5805 14.4915 17.5805 13.9478 17.5122 13.8328C17.444 13.7178 17.2601 13.6498 16.9869 13.5139C16.7138 13.378 15.369 12.7192 15.1168 12.6251C14.8647 12.5362 14.6808 12.4892 14.5022 12.761C14.3184 13.0329 13.7931 13.6446 13.6355 13.8276C13.4779 14.0106 13.315 14.0315 13.0419 13.8955C12.7687 13.7596 11.8862 13.4721 10.8408 12.5415C10.0266 11.82 9.47502 10.926 9.31742 10.6541C9.15983 10.3822 9.30166 10.2359 9.43824 10.0999C9.55907 9.97967 9.71141 9.78101 9.84799 9.62416C9.98457 9.46732 10.0318 9.3523 10.1211 9.16931C10.2104 8.98633 10.1684 8.82949 10.1001 8.69355C10.0318 8.56285 9.49603 7.21399 9.25439 6.6755Z" fill="#46A440"/>
</svg>
